<?xml version="1.0" standalone="no"?>
<!DOCTYPE svg PUBLIC "-//W3C//DTD SVG 1.1//EN" "http://www.w3.org/Graphics/SVG/1.1/DTD/svg11.dtd" >
<svg xmlns="http://www.w3.org/2000/svg" xmlns:xlink="http://www.w3.org/1999/xlink" version="1.1">
<metadata>
Created by FontForge 20161003 at Fri Jun  2 12:34:35 2017
 By www-data
Copyright (c) 2010, Sebastian Kosch (sebastian@aldusleaf.org),
with Reserved Font Name "Crimson Text".
This Font Software is licensed under the SIL Open Font License, Version 1.1.
This license is available with a FAQ at: http://scripts.sil.org/OFL
</metadata>
<defs>
<font id="CrimsonRoman" horiz-adv-x="968" >
  <font-face 
    font-family="CrimsonRoman"
    font-weight="400"
    font-stretch="normal"
    units-per-em="2048"
    panose-1="2 0 5 3 0 0 0 0 0 0"
    ascent="1434"
    descent="-614"
    x-height="864"
    cap-height="1312"
    bbox="-190 -462 2122 1722"
    underline-thickness="94"
    underline-position="-412"
    unicode-range="U+000D-E000"
  />
<missing-glyph horiz-adv-x="748" 
d="M68 0v1365h544v-1365h-544zM136 68h408v1229h-408v-1229z" />
    <glyph glyph-name=".notdef" horiz-adv-x="748" 
d="M68 0v1365h544v-1365h-544zM136 68h408v1229h-408v-1229z" />
    <glyph glyph-name="glyph1" horiz-adv-x="2048" 
 />
    <glyph glyph-name="glyph1" horiz-adv-x="2048" 
 />
    <glyph glyph-name="uni000D" unicode="&#xd;" horiz-adv-x="682" 
 />
    <glyph glyph-name="space" unicode=" " horiz-adv-x="458" 
 />
    <glyph glyph-name="exclam" unicode="!" horiz-adv-x="560" 
d="M164 90q0 48 34 81t82 33t81 -33t33 -81t-33 -83t-81 -35t-82 35t-34 83zM180 1158q0 50 29 88t75 38q44 0 67 -37t23 -89q0 -20 -9 -106t-24 -275t-29 -415q-2 -30 -10 -41t-38 -25q-10 -4 -17 10t-9 34q-16 260 -31 451t-21 258t-6 109z" />
    <glyph glyph-name="quotedbl" unicode="&#x22;" horiz-adv-x="696" 
d="M84 1270q0 30 37 78t73 48h28q30 0 45 -25t15 -105q0 -60 -28 -184t-34 -184q-4 -30 -32 -30q-32 0 -36 26q-10 94 -39 216t-29 160zM412 1270q0 32 36 79t72 47h30q28 0 43 -25t15 -105q0 -60 -30 -183t-36 -185q-2 -30 -32 -30q-26 0 -30 26q-10 94 -39 216t-29 160z
" />
    <glyph glyph-name="numbersign" unicode="#" horiz-adv-x="952" 
d="M48 370q0 28 16 82q2 6 5 8t7 2h2h172l24 172h-214q-12 2 -12 22q0 28 16 82q2 6 5 8t7 2h2h214l48 312q18 18 94 18q12 0 17 -5t5 -9l-2 -4l-46 -312h188l48 312q18 18 94 18q12 0 17 -5t5 -9l-2 -4l-48 -312h164q2 0 4 1t6 -3t4 -12q0 -28 -18 -86l-12 -14h-166
l-26 -172h208q2 0 4 1t6 -3t4 -12q0 -28 -18 -86q-2 -6 -5 -9t-5 -3h-2h-208l-48 -302l-6 -8q-12 -10 -54 -10h-26q-12 0 -19 5t-7 9v4l44 302h-188l-44 -302q0 -2 -2 -4t-3 -4t-4 -3t-8 -2t-11 -2t-15 -2t-19 -1h-26q-12 0 -19 5t-7 9l-2 4l46 302h-172q-12 0 -12 20z
M364 462h190l24 172h-188z" />
    <glyph glyph-name="dollar" unicode="$" horiz-adv-x="982" 
d="M90 332q0 16 36 16q28 0 44 -16q72 -270 316 -270q98 0 168 58t70 162q0 42 -15 78t-27 56t-51 48t-49 34t-58 30q-12 6 -18 10q-204 106 -300 192t-96 216q0 146 114 244t266 98q46 0 104 -9t116 -22t70 -15q22 -180 22 -274q0 -16 -14 -16q-50 4 -52 22q-10 70 -79 150
t-177 80q-218 0 -218 -194q0 -92 59 -150t183 -128q10 -6 65 -37t70 -40t62 -39t63 -46t48 -47t44 -56t23 -58t11 -69q0 -154 -122 -255t-286 -101q-80 0 -336 46q-48 128 -56 302zM328 -86l240 1452q70 0 70 -14l-240 -1456q-70 0 -70 18z" />
    <glyph glyph-name="percent" unicode="%" horiz-adv-x="1360" 
d="M98 968q0 136 84 229t216 93q128 0 211 -94t83 -228q0 -126 -82 -222t-212 -96q-124 0 -212 93t-88 225zM146 -2l964 1250q20 24 40 24q22 0 33 -2t14 -3t8 -8t9 -11l-966 -1248q-20 -24 -66 -24q-26 0 -36 22zM226 992q0 -108 56 -200t128 -92q80 0 115 74t35 178
q0 110 -47 200t-123 90q-82 0 -123 -75t-41 -175zM674 304q0 136 85 229t217 93q128 0 210 -94t82 -228q0 -128 -81 -223t-213 -95q-124 0 -212 93t-88 225zM802 328q0 -106 56 -199t130 -93q80 0 114 74t34 178q0 110 -47 200t-121 90q-82 0 -124 -75t-42 -175z" />
    <glyph glyph-name="ampersand" unicode="&#x26;" horiz-adv-x="1342" 
d="M108 316q0 130 88 217t244 167q-38 64 -57 103t-39 105t-20 130q0 114 84 194t210 80q134 0 212 -59t78 -165q0 -122 -78 -208t-220 -174q116 -196 296 -398q50 76 82 146t32 88t-19 25t-43 8t-28 3q-4 8 -4 24t6 22h158q30 0 63 2t78 4t79 4q10 -6 10 -26q0 -30 -12 -30
q-26 0 -74 -12t-64 -22q-2 -2 -28 -45t-76 -117t-104 -136q46 -48 64 -66t48 -45t48 -36t36 -9q28 0 61 34t43 58q16 0 31 -12t15 -24q-8 -16 -18 -32t-35 -46t-68 -49t-97 -19q-52 0 -110 36t-88 72l-32 36q-172 -150 -364 -150q-178 0 -283 86t-105 236zM280 344
q0 -132 82 -198t202 -66q62 0 133 30t117 80q-58 58 -140 168t-134 190l-54 80q-72 -50 -106 -77t-67 -83t-33 -124zM470 1086q0 -128 104 -316q104 60 151 121t47 169q0 72 -40 126t-104 54q-66 0 -112 -43t-46 -111z" />
    <glyph glyph-name="quotesingle" unicode="'" horiz-adv-x="372" 
d="M84 1270q0 32 36 79t72 47h30q30 0 45 -25t15 -105q0 -60 -31 -183t-37 -185q-2 -30 -32 -30q-26 0 -30 26q-10 94 -39 216t-29 160z" />
    <glyph glyph-name="parenleft" unicode="(" horiz-adv-x="646" 
d="M142 610q0 178 41 348t100 284t125 184t118 70q10 0 18 -18t8 -30q0 -6 -2 -6q-100 -48 -189 -295t-89 -537q0 -282 101 -522t177 -278q4 -2 4 -10q0 -12 -9 -27t-19 -15q-42 0 -106 68t-127 177t-107 274t-44 333z" />
    <glyph glyph-name="parenright" unicode=")" horiz-adv-x="644" 
d="M90 -200q0 8 4 10q76 38 177 278t101 522q0 290 -89 537t-189 295q-2 0 -2 6q0 12 8 30t18 18q52 0 118 -70t125 -184t100 -284t41 -348q0 -168 -44 -333t-107 -274t-127 -177t-106 -68q-10 0 -19 15t-9 27z" />
    <glyph glyph-name="asterisk" unicode="*" horiz-adv-x="888" 
d="M82 914q-6 32 16 56t60 28q50 6 123 -4t109 -6q18 6 22 16q6 12 -4 28q-18 30 -65 81t-73 95q-44 80 12 112q64 32 102 -46q20 -46 33 -118t29 -106q10 -20 20 -22q12 -2 26 12q24 26 56 87t66 99q26 30 57 38t55 -14q24 -24 20 -55t-32 -57q-36 -32 -101 -67t-93 -61
l-10 -28q2 -14 20 -20q32 -16 100 -28t114 -32q36 -16 54 -43t4 -55q-14 -30 -46 -36t-64 12q-44 24 -97 75t-85 69l-28 6q-8 -4 -12 -26q-4 -36 5 -104t3 -118q-4 -40 -25 -64t-51 -20q-32 4 -48 31t-8 65q10 50 43 117t39 103q2 18 -6 26q-8 10 -26 6q-34 -8 -96 -38
t-114 -40q-38 -8 -69 4t-35 42z" />
    <glyph glyph-name="plus" unicode="+" horiz-adv-x="1164" 
d="M104 456q0 28 16 82q2 6 5 8t7 2h2h382q10 0 10 12v380q-2 10 10 14q54 16 82 16l20 -12v-400q0 -10 8 -10h400q16 0 16 -10q0 -16 -20 -90q-2 -6 -5 -9t-5 -3h-4h-382q-8 0 -8 -6v-384q0 -20 -90 -32q-4 0 -7 -1t-5 -1q-10 0 -10 16v398q0 10 -12 10h-398q-12 0 -12 20z
" />
    <glyph glyph-name="comma" unicode="," horiz-adv-x="478" 
d="M88 -282q0 4 23 25t51 49t51 78t23 102q0 36 -30 98t-30 82q0 44 44 75t100 31q26 0 48 -8q26 -38 26 -128q0 -38 -4 -52q-28 -130 -78 -211t-176 -185h-2q-8 0 -27 16t-19 28z" />
    <glyph glyph-name="hyphen" unicode="-" horiz-adv-x="750" 
d="M116 420q0 102 24 102h2l482 24h2q12 0 12 -18q0 -44 -7 -71t-13 -33l-6 -4l-482 -22h-4t-6 6t-4 16z" />
    <glyph glyph-name="period" unicode="." horiz-adv-x="466" 
d="M118 90q0 48 35 81t83 33t81 -33t33 -81t-33 -83t-81 -35t-83 35t-35 83z" />
    <glyph glyph-name="slash" unicode="/" horiz-adv-x="848" 
d="M50 -56l592 1534q20 44 98 44q18 0 42 -12l-592 -1534q-4 -14 -31 -30t-73 -16q-14 0 -23 3t-11 7z" />
    <glyph glyph-name="zero" unicode="0" 
d="M48 638q0 272 118 458t318 186q202 0 319 -185t117 -459q0 -272 -118 -458t-318 -186q-198 0 -317 187t-119 457zM224 640q0 -240 70 -405t180 -165q128 0 199 166t71 414q0 238 -70 397t-180 159q-122 0 -196 -162t-74 -404z" />
    <glyph glyph-name="one" unicode="1" 
d="M226 1042q0 8 4 12q338 230 346 230h4q16 0 24 -38q-20 -66 -20 -188v-788q0 -116 16 -178q4 -14 59 -27t75 -13q8 0 8 -36q0 -18 -2 -22q-200 10 -242 10q-32 0 -232 -10q-8 8 -8 33t8 25q26 0 81 13t59 27q12 48 12 114v720q0 58 -4 88t-9 37t-15 7q-12 0 -35 -12
t-53 -30l-40 -24q-12 6 -24 23t-12 27z" />
    <glyph glyph-name="two" unicode="2" 
d="M98 60q218 220 374 457t156 401q0 108 -54 167t-142 59q-166 0 -266 -166q-12 0 -25 13t-13 19q6 24 33 65t72 90t120 84t159 35q134 0 211 -100t77 -226q0 -74 -25 -153t-78 -161t-96 -143t-119 -141t-105 -110t-93 -92q-6 -10 4 -14h386q56 0 81 32t51 122q8 22 28 22
q26 0 36 -8q-48 -240 -54 -280q-4 -32 -40 -32h-656q-8 0 -15 23t-7 37z" />
    <glyph glyph-name="three" unicode="3" horiz-adv-x="970" 
d="M112 108q0 94 74 94q18 0 37 -15t42 -39t39 -36q58 -42 152 -42q88 0 159 69t71 221q0 118 -76 200t-178 82q-74 0 -130 -14q-14 18 -14 52q0 14 4 20q138 24 220 96t82 196q0 68 -53 121t-121 53q-44 0 -81 -15t-56 -31t-37 -35t-20 -21q-8 0 -16 19t-8 33
q54 80 122 124t176 44q86 0 165 -71t79 -185q0 -88 -43 -149t-123 -121q106 -38 193 -126t87 -220q0 -190 -134 -306t-332 -116q-170 0 -260 60q-20 14 -20 58z" />
    <glyph glyph-name="four" unicode="4" horiz-adv-x="964" 
d="M66 410l606 856q18 24 46 24q26 0 26 -20v-806h124q32 0 32 -96q0 -12 -12 -20h-144v-350q-6 -10 -84 -10q-74 0 -74 16v344h-506q-14 18 -14 62zM208 482q0 -18 14 -18h364v532q0 18 -10 18q0 -2 -2 -4l-364 -522q-2 -2 -2 -6z" />
    <glyph glyph-name="five" unicode="5" horiz-adv-x="970" 
d="M114 108q0 94 74 94q18 0 37 -15t42 -39t39 -36q58 -42 160 -42q84 0 151 71t67 219q0 52 -14 98t-45 91t-91 71t-142 26q-104 0 -174 -22q-16 8 -36 28l96 594q394 12 470 28q10 -14 10 -42q0 -50 -12 -110q-52 -16 -226 -22l-174 -8q-10 -2 -14 -16q-22 -110 -58 -320
q66 26 188 26q160 0 277 -110t117 -260q0 -184 -129 -303t-325 -119q-178 0 -268 60q-20 14 -20 58z" />
    <glyph glyph-name="six" unicode="6" 
d="M88 416q0 156 62 300t167 253t226 190t257 135q12 0 29 -22t17 -32q-202 -88 -343 -213t-195 -323q-4 -20 2 -20q4 2 6 4q28 22 101 48t133 26q140 0 235 -117t95 -255q0 -166 -124 -284t-286 -118q-166 0 -274 129t-108 299zM260 420q0 -140 67 -247t167 -107
q88 0 154 77t66 205q0 136 -65 224t-191 88q-54 0 -104 -29t-64 -61q-28 -64 -30 -150z" />
    <glyph glyph-name="seven" unicode="7" horiz-adv-x="966" 
d="M72 942q4 18 29 133t33 167q2 24 32 24h578q32 0 82 3t52 3q14 0 14 -18q0 -12 -8 -31t-25 -53l-25 -50l-526 -1126q-6 -6 -22 -6q-22 0 -46 21t-24 35l532 1062h-482q-34 0 -61 -28t-39 -56t-26 -74q-2 -8 -28 -10t-40 4z" />
    <glyph glyph-name="eight" unicode="8" 
d="M106 308q0 26 6 51t13 45t23 43t27 38t33 35t32 29t36 27t33 23t31 21l26 16q10 6 0 12q-78 46 -141 129t-63 183q0 128 100 227t232 99q138 0 233 -83t95 -221q0 -152 -224 -294q-14 -4 0 -12q104 -60 183 -151t79 -191q0 -148 -115 -250t-267 -102q-166 0 -269 90
t-103 236zM264 314q0 -116 66 -188t152 -72q100 0 158 60t58 162q0 58 -34 115t-86 101t-81 64t-55 34q-8 4 -12 4q-6 0 -8 -2q-84 -52 -121 -117t-37 -161zM310 984q0 -136 208 -256q8 -4 12 -4q6 0 12 4q136 90 136 244q0 94 -55 169t-141 75q-74 0 -123 -64t-49 -168z
" />
    <glyph glyph-name="nine" unicode="9" 
d="M90 890q0 166 123 285t285 119q164 0 272 -129t108 -299q0 -156 -64 -305t-165 -260t-214 -192t-225 -121q-12 0 -28 24t-16 34q154 60 296 197t196 335q4 20 -2 20q-4 -2 -6 -4q-22 -26 -92 -48t-124 -22q-144 0 -244 108t-100 258zM256 926q0 -130 66 -217t188 -87
q54 0 104 29t64 61q26 60 28 150q0 142 -67 248t-173 106q-86 0 -148 -80t-62 -210z" />
    <glyph glyph-name="colon" unicode=":" horiz-adv-x="472" 
d="M120 92q0 50 35 85t85 35t84 -35t34 -85t-34 -85t-84 -35t-85 35t-35 85zM120 742q0 50 35 84t85 34t84 -34t34 -84t-34 -86t-84 -36t-85 36t-35 86z" />
    <glyph glyph-name="semicolon" unicode=";" horiz-adv-x="488" 
d="M90 -280q0 4 37 34t73 88t36 130q0 58 -27 107t-27 57q0 40 43 76t97 36q18 0 36 -14q34 -32 34 -156q0 -84 -20 -144q-22 -66 -73 -122t-153 -142q-8 -4 -14 -4q-14 0 -28 22t-14 32zM164 742q0 50 36 84t86 34t84 -34t34 -84t-34 -86t-84 -36t-86 36t-36 86z" />
    <glyph glyph-name="less" unicode="&#x3c;" horiz-adv-x="1070" 
d="M122 434q0 30 36 48l738 374q8 4 10 4q16 0 34 -94l-6 -18l-652 -330l662 -336q6 -2 6 -12q0 -14 -12 -57t-20 -43q-2 0 -10 4l-750 380q-36 20 -36 80z" />
    <glyph glyph-name="equal" unicode="=" horiz-adv-x="1142" 
d="M104 254q0 20 18 82q2 6 5 8t5 2h4h888q16 0 16 -10q0 -16 -20 -90q-2 -6 -5 -9t-5 -3h-2h-890q-14 0 -14 20zM104 538q10 92 30 92h898q8 0 8 -10q0 -16 -20 -90q-2 -6 -5 -9t-5 -3h-2h-890q-14 0 -14 20z" />
    <glyph glyph-name="greater" unicode="&#x3e;" horiz-adv-x="1070" 
d="M122 70l6 12l662 336l-650 330q-6 2 -6 16q0 26 13 61t19 35q2 0 10 -4l740 -374q34 -18 34 -48q0 -62 -34 -80l-750 -380q-8 -4 -10 -4q-8 0 -21 43t-13 57z" />
    <glyph glyph-name="question" unicode="?" horiz-adv-x="732" 
d="M118 90q0 48 34 81t82 33t82 -33t34 -81t-34 -83t-82 -35t-82 35t-34 83zM130 1196q0 46 14 68q40 20 100 20q120 0 257 -106t137 -264q0 -104 -45 -173t-157 -133q-42 -24 -95 -66t-61 -58q-20 -36 -20 -138q0 -26 -40 -26q-26 0 -26 16q0 26 -1 93t-1 95q0 24 3 45
t11 40t13 33t21 30t21 24t26 22t25 18t27 19t25 15q50 32 71 46t51 39t41 48t11 49q0 86 -49 132t-113 46q-60 0 -96 -7t-56 -7q-32 0 -63 18t-31 62z" />
    <glyph glyph-name="at" unicode="@" horiz-adv-x="1638" 
d="M104 370q0 360 232 572t578 212q144 0 268 -63t205 -163t126 -221t45 -241q0 -138 -34 -239t-90 -153t-116 -76t-124 -24q-96 0 -160 70t-64 140q0 2 -4 0t-6 -4q-32 -54 -126 -124t-164 -70q-104 0 -161 91t-57 205q0 214 148 376t402 162l178 -18l-14 -106l-50 -446
q-4 -40 -4 -56q0 -140 100 -140q70 0 122 42t78 106t37 121t11 105q0 258 -159 443t-409 185q-276 0 -473 -175t-197 -435q0 -314 178 -506t538 -192q16 0 35 4t37 11t33 13t25 12l12 4q4 -18 4 -20q0 -40 -69 -77t-187 -37q-156 0 -294 66t-231 169t-146 229t-53 248z
M608 286q0 -94 36 -137t82 -43q78 0 164 93t90 141l30 304q2 12 2 24q0 16 -4 25t-28 17t-70 8q-128 0 -215 -115t-87 -317z" />
    <glyph glyph-name="A" unicode="A" horiz-adv-x="1368" 
d="M40 24q0 28 8 28q24 0 62 10t52 28q42 54 94 188l348 894q4 10 11 32t11 33t12 28t14 25t15 18t20 14t25 4l18 -6l400 -1056q36 -94 58 -144q12 -30 62 -49t74 -19q8 0 8 -38q0 -8 -4 -20q-200 10 -220 10q-2 0 -232 -10q-8 8 -7 33t9 25q24 0 60 10t42 26q4 16 4 32
q0 26 -7 61t-13 55l-8 22l-82 226q-6 8 -12 8q-78 6 -152 6q-104 0 -254 -10l-10 -6l-86 -220q-34 -100 -34 -138q0 -28 16 -40q18 -14 58 -23t58 -9q6 0 7 -24t-3 -34q-200 10 -206 10q-40 0 -70 -2t-67 -4t-71 -4q-8 8 -8 30zM494 606q0 -8 4 -8q104 -4 142 -4q88 0 182 6
l6 10l-162 442z" />
    <glyph glyph-name="B" unicode="B" horiz-adv-x="1184" 
d="M72 1282q0 26 8 34q104 -4 238 -4q102 0 167 1t115 1q52 0 106 -9t111 -33t101 -60t72 -95t28 -131t-46 -134t-85 -86t-67 -34q-16 -6 -10 -12q78 -14 186 -113t108 -233q0 -172 -139 -273t-369 -101h-274l-242 -6q-6 6 -6 32t6 26q26 0 77 14t61 32q14 24 14 188v756
q0 118 -14 172q-6 16 -59 30t-79 14q-8 0 -8 24zM406 296q0 -152 32 -178q30 -28 108 -28q50 0 99 8t117 31t110 80t42 143q0 128 -86 219t-270 91q-44 0 -144 -8q-8 -24 -8 -66v-292zM406 760q0 -14 132 -14q64 0 112 6q82 8 137 57t55 131q0 138 -69 215t-205 77
q-92 0 -142 -14q-12 -2 -12 -18l-8 -202v-238z" />
    <glyph glyph-name="C" unicode="C" horiz-adv-x="1312" 
d="M88 644q0 284 190 487t466 203q236 0 486 -50q-4 -268 -4 -288q0 -30 -42 -30q-20 0 -26 10q-6 26 -15 53t-38 70t-70 74t-116 54t-169 23q-196 0 -334 -173t-138 -391q0 -162 56 -298t177 -225t287 -89q198 0 306 116q28 30 49 79t32 82t17 33q12 0 29 -4t27 -8l10 -6
q0 -22 -28 -153t-40 -137q-146 -88 -478 -88q-264 0 -449 194t-185 462z" />
    <glyph glyph-name="D" unicode="D" horiz-adv-x="1444" 
d="M68 1282q0 26 8 34q104 -4 238 -4q76 0 193 2t155 2q326 0 508 -192t182 -452q0 -290 -184 -484t-508 -194q-24 0 -143 4q-79 3 -141 3q-31 0 -58 -1l-242 -6q-6 6 -6 30q0 28 6 28q26 0 77 14t61 32q14 24 14 188v756q0 118 -14 172q-6 16 -59 30t-79 14q-8 0 -8 24z
M402 278q0 -84 30 -152q8 -20 107 -30t153 -10q460 0 460 594q0 228 -121 388t-353 160h-10q-216 0 -240 -32q-26 -36 -26 -126v-792z" />
    <glyph glyph-name="E" unicode="E" horiz-adv-x="1142" 
d="M58 1282q0 26 8 34q104 -4 238 -4q90 0 312 8t334 8q8 -58 31 -153t27 -119q-10 -10 -36 -10t-28 14q-30 110 -84 141t-148 31h-134q-172 0 -176 -26q-10 -48 -10 -168v-320q0 -12 86 -12h106h81t53 8t36 10t21 26t15 35t14 57q2 14 30 14q24 0 34 -10v-378q-8 -8 -32 -8
q-26 0 -32 16q-14 54 -24 81t-15 32t-17 13q-26 16 -212 16q-144 0 -144 -18v-310q0 -130 18 -182q6 -20 136 -20h96q186 0 252 34q30 16 67 71t59 131q4 12 28 12q38 0 50 -12q-10 -26 -31 -83t-33 -92t-26 -81t-18 -76q-102 0 -322 4t-360 4l-242 -6q-6 6 -6 32t6 26
q26 0 77 14t61 32q14 24 14 188v756q0 118 -14 172q-6 16 -59 30t-79 14q-8 0 -8 24z" />
    <glyph glyph-name="F" unicode="F" horiz-adv-x="1102" 
d="M80 1282q0 26 8 34q104 -4 238 -4q90 0 312 8t334 8q8 -58 31 -153t27 -119q-10 -10 -36 -10t-28 14q-30 110 -84 141t-148 31h-134q-172 0 -176 -26q-10 -48 -10 -168v-326q0 -12 84 -12h106q134 0 164 19t52 109q2 12 4 18q2 14 30 14q24 0 34 -10v-388q-8 -8 -32 -8
q-26 0 -32 16q-14 54 -24 81t-15 32t-17 13q-26 16 -212 16q-142 0 -142 -18v-316q0 -116 18 -186q4 -14 56 -27t72 -13q8 0 8 -30q0 -16 -4 -28q-200 10 -232 10q-10 0 -240 -10q-8 8 -8 30q0 28 8 28q26 0 77 12t57 28q14 54 14 180v770q0 118 -14 172q-6 16 -59 30
t-79 14q-8 0 -8 24z" />
    <glyph glyph-name="G" unicode="G" horiz-adv-x="1430" 
d="M88 644q0 284 190 487t466 203q142 0 474 -90q8 -228 8 -248q0 -30 -42 -30q-20 0 -26 10q-54 274 -408 274q-200 0 -334 -170t-134 -410q0 -222 147 -409t369 -187q176 0 260 44q14 6 14 30l-2 164v14q0 130 -16 172q-8 20 -65 32t-89 12q-8 0 -8 25t8 33
q256 -10 262 -10q16 0 216 10q4 -12 4 -28q0 -30 -8 -30q-12 0 -55 -13t-61 -23q-20 -14 -20 -134q0 -42 3 -91t3 -53q0 -36 14 -70t14 -40q0 -16 -50 -36q-4 -2 -39 -15t-45 -17t-45 -15t-56 -15t-60 -12t-74 -11t-82 -6t-99 -3q-264 0 -449 194t-185 462z" />
    <glyph glyph-name="H" unicode="H" horiz-adv-x="1414" 
d="M76 24q0 28 8 28q26 0 77 12t57 28q14 54 14 178v776q0 124 -14 178q-6 16 -57 29t-77 13q-8 0 -8 26q0 24 8 32q26 -2 106 -7t134 -5q40 0 78 2t82 5t72 5q4 -8 3 -33t-7 -25q-20 0 -72 -14t-56 -28q-18 -70 -18 -186v-298l4 -6q196 -4 304 -4q116 0 296 4q4 4 4 8v304
q0 124 -14 178q-6 16 -57 29t-77 13q-8 0 -8 25t8 33q24 -2 106 -7t136 -5q38 0 76 2t81 5t71 5q4 -12 4 -30q0 -28 -8 -28q-20 0 -72 -14t-56 -28q-16 -62 -16 -186v-760q0 -124 16 -186q4 -14 56 -27t72 -13q8 0 8 -30q0 -16 -4 -28q-200 10 -228 10q-12 0 -242 -10
q-8 8 -8 33t8 25q26 0 77 12t57 28q14 54 14 178v352l-4 8q-188 4 -296 4q-308 0 -308 -10v-346q0 -116 18 -186q4 -14 56 -27t72 -13q6 0 7 -24t-3 -34q-200 10 -232 10q-10 0 -240 -10q-8 8 -8 30z" />
    <glyph glyph-name="I" unicode="I" horiz-adv-x="636" 
d="M76 24q0 28 8 28q26 0 77 12t57 28q14 54 14 178v776q0 124 -14 178q-6 16 -57 29t-77 13q-8 0 -8 26q0 24 8 32q230 -10 240 -10q32 0 232 10q4 -12 4 -30q0 -28 -8 -28q-20 0 -72 -14t-56 -28q-18 -70 -18 -186v-760q0 -116 18 -186q4 -14 56 -27t72 -13q8 0 8 -30
q0 -16 -4 -28q-200 10 -232 10q-10 0 -240 -10q-8 8 -8 30z" />
    <glyph glyph-name="J" unicode="J" horiz-adv-x="644" 
d="M-190 -348q0 44 37 72t87 28q36 0 81 -43t71 -43q28 0 57 28t57 82t46 153t18 225v892q0 124 -14 178q-6 16 -57 29t-77 13q-8 0 -8 26q0 24 8 32q26 -2 106 -7t134 -5q40 0 78 2t82 5t72 5q4 -12 4 -30q0 -28 -8 -28q-20 0 -72 -14t-56 -28q-18 -70 -18 -186v-868
q0 -252 -141 -438t-359 -186q-22 0 -48 8t-42 16l-14 8q-24 28 -24 74z" />
    <glyph glyph-name="K" unicode="K" horiz-adv-x="1386" 
d="M82 24q0 28 8 28q26 0 77 12t57 28q14 54 14 178v776q0 124 -14 178q-6 16 -57 29t-77 13q-8 0 -8 26q0 24 8 32q26 -2 106 -7t134 -5q40 0 78 2t82 5t72 5q4 -8 3 -33t-7 -25q-20 0 -72 -14t-56 -28q-18 -70 -18 -186v-326l14 -12h14q64 0 116 58q234 262 344 406
q48 58 48 76q0 34 -114 34q-8 0 -8 18t4 32q26 -2 68 -5t78 -5t68 -2q50 0 114 5t88 7q4 -8 3 -29t-7 -21q-122 -14 -184 -84l-402 -468q-16 -18 14 -54l482 -530q32 -34 84 -56t81 -26t47 -4q10 0 10 -36q0 -14 -4 -22q-200 10 -248 10q-50 0 -90 -2t-90 -4t-90 -4
q-8 8 -8 33t8 25q24 0 55 8t31 24q0 64 -454 530q-8 8 -58 8q-14 0 -14 -16v-328q0 -116 18 -186q4 -14 56 -27t72 -13q6 0 7 -24t-3 -34q-200 10 -232 10q-10 0 -240 -10q-8 8 -8 30z" />
    <glyph glyph-name="L" unicode="L" horiz-adv-x="1136" 
d="M72 30q0 26 6 26q28 0 78 12t60 30q14 24 14 188v756q0 128 -14 182q-6 16 -57 29t-77 13q-8 0 -8 26q0 24 8 32q26 -2 106 -7t134 -5q40 0 78 2t82 5t72 5q4 -12 4 -30q0 -28 -8 -28q-20 0 -72 -14t-56 -28q-18 -70 -18 -186v-754q0 -106 18 -176q6 -20 136 -20h96
q186 0 252 34q30 16 67 71t59 131q4 12 28 12q38 0 50 -12q-10 -26 -31 -83t-33 -92t-26 -81t-18 -76q-104 0 -325 6t-357 6l-242 -6q-6 6 -6 32z" />
    <glyph glyph-name="M" unicode="M" horiz-adv-x="1820" 
d="M52 24q0 28 10 28q28 0 83 13t73 31q32 36 36 174q4 208 9 410t9 317t4 147q0 50 -8 80q-6 16 -68 29t-90 13q-8 0 -8 28q0 22 8 30q34 -2 75 -4t75 -4t74 -2q74 0 184 10q14 -46 396 -1002q2 -4 8 -4q8 0 10 8q196 460 312 758l80 240q128 -8 166 -8q124 0 224 8
q6 -18 6 -30q0 -28 -10 -28h-4q-22 0 -58 -13t-54 -27q-24 -18 -24 -134q0 -32 18 -812q2 -114 30 -184q8 -18 60 -31t74 -13q8 0 8 -28q0 -18 -4 -30q-200 10 -238 10q-10 0 -240 -10q-8 8 -8 32q0 26 8 26q20 0 61 10t59 20q24 14 24 86v106l-24 704q-2 32 -11 75t-19 43
q-4 0 -10 -14l-418 -1000q-38 -86 -74 -86q-6 0 -18 4l-458 1164q-4 -192 -12 -440t-14 -409t-6 -165q0 -36 12 -52t73 -31t81 -15q8 0 8 -30q0 -16 -4 -28q-200 10 -232 10q-4 0 -234 -10q-10 10 -10 30z" />
    <glyph glyph-name="N" unicode="N" horiz-adv-x="1442" 
d="M40 24q0 28 6 28q28 0 91 15t69 33q20 52 20 188v786q0 98 -14 150q-6 16 -68 29t-90 13q-8 0 -8 25t8 33q156 -4 204 -4q104 0 160 4q74 -136 678 -980q6 34 6 82v622q0 122 -14 176q-6 16 -69 31t-89 15q-8 0 -8 23t8 31q26 -2 104 -7t132 -5q52 0 131 6t93 6
q4 -12 4 -30q0 -24 -8 -24q-20 0 -87 -16t-71 -30q-16 -62 -16 -186v-760q0 -124 6 -280q-8 -8 -38 -8q-34 0 -66 46l-776 1100v-854q0 -132 14 -186q4 -14 67 -29t83 -15q6 0 7 -24t-3 -34q-200 10 -230 10l-230 -10q-6 6 -6 30z" />
    <glyph glyph-name="O" unicode="O" horiz-adv-x="1456" 
d="M88 656q0 280 187 479t451 199t452 -199t188 -479t-188 -478t-452 -198t-451 198t-187 478zM286 700q0 -160 52 -302t162 -237t258 -95q128 0 224 83t141 206t45 263q0 160 -52 301t-162 236t-258 95q-190 0 -300 -166t-110 -384z" />
    <glyph glyph-name="P" unicode="P" horiz-adv-x="1090" 
d="M80 1282q0 26 8 34l240 -4q60 0 142 4t140 4q66 0 133 -20t130 -60t103 -114t40 -172q0 -58 -25 -125t-73 -130t-129 -104t-181 -41q-112 0 -154 56q-12 14 -6 46q2 8 6 6q60 -22 134 -22q100 0 172 84t72 200q0 142 -62 225t-192 83q-90 0 -140 -14q-10 -2 -14 -15
t-7 -61t-3 -144v-714q0 -134 16 -174q10 -26 71 -42t87 -16q8 0 8 -28q0 -18 -4 -30q-200 10 -260 10l-244 -10q-6 6 -6 36q0 26 6 26q28 0 78 12t60 30q14 24 14 188v756q0 118 -14 172q-6 16 -59 30t-79 14q-8 0 -8 24z" />
    <glyph glyph-name="Q" unicode="Q" horiz-adv-x="1448" 
d="M88 656q0 280 187 479t451 199t452 -199t188 -479q0 -256 -147 -436t-301 -210q54 -26 149 -82t159 -76t158 -20q36 0 66 4t48 8t22 4q24 0 24 -40v-10q-132 -70 -336 -70q-96 0 -209 52t-238 123t-207 97q-72 22 -148 74t-150 132t-121 199t-47 251zM278 700
q0 -250 130 -442t350 -192q192 0 305 167t113 385q0 250 -130 441t-350 191q-190 0 -304 -167t-114 -383z" />
    <glyph glyph-name="R" unicode="R" horiz-adv-x="1320" 
d="M76 1282q0 26 8 34l240 -4q60 0 142 4t140 4q68 0 138 -20t138 -60t112 -114t44 -172q0 -84 -63 -176t-171 -142q-20 -8 -12 -20q100 -210 230 -352q192 -210 312 -210q6 -12 6 -28q0 -18 -6 -30q-22 -6 -54 -6q-280 0 -486 288q-32 44 -73 105t-60 88t-44 59t-44 48
t-41 26q-22 8 -74 8q-16 0 -24 -1t-16 -9t-8 -24v-294q0 -134 16 -174q10 -26 71 -42t87 -16q8 0 8 -28q0 -18 -4 -30q-200 10 -260 10l-244 -10q-6 6 -6 36q0 26 6 26q28 0 78 12t60 30q14 24 14 188v756q0 118 -14 172q-6 16 -59 30t-79 14q-8 0 -8 24zM410 756
q0 -58 174 -58h50q70 0 145 70t75 186q0 278 -280 278q-90 0 -140 -14q-8 -2 -13 -15t-8 -60t-3 -145v-242z" />
    <glyph glyph-name="S" unicode="S" horiz-adv-x="982" 
d="M82 356q0 12 32 12q36 0 50 -18q68 -288 332 -288q100 0 170 60t70 170q0 40 -12 74t-25 56t-46 47t-51 37t-66 38t-66 36q-58 34 -81 48t-76 49t-77 62t-56 66t-45 83t-13 92q0 154 118 253t274 99q44 0 83 -5t64 -11t72 -19t83 -21q24 -106 24 -286q0 -14 -20 -14
q-48 0 -52 20q-10 88 -85 171t-183 83q-120 0 -169 -60t-49 -148q0 -38 14 -73t28 -58t51 -53t54 -42t68 -44t65 -40q10 -6 70 -43t82 -52t69 -54t68 -69t40 -75t19 -93q0 -160 -125 -263t-293 -103q-48 0 -102 7t-90 14t-91 20t-77 17q-50 246 -50 318z" />
    <glyph glyph-name="T" unicode="T" horiz-adv-x="1338" 
d="M56 1056l38 286q88 -22 138 -22q76 0 213 -4t225 -4t226 4t214 4q50 0 138 22l38 -286q-14 -14 -48 -14q-18 0 -20 10q-28 112 -69 145t-155 33q-212 0 -220 -30q-18 -64 -18 -200v-722q0 -116 18 -186q4 -14 56 -27t72 -13q8 0 8 -30q0 -16 -4 -28q-200 10 -232 10
q-10 0 -240 -10q-8 8 -8 30q0 28 8 28q26 0 77 12t57 28q14 54 14 178v724q0 174 -18 206q-16 30 -216 30q-114 0 -155 -33t-69 -145q-2 -10 -20 -10q-34 0 -48 14z" />
    <glyph glyph-name="U" unicode="U" horiz-adv-x="1438" 
d="M66 1292q0 24 8 32q230 -10 240 -10q32 0 232 10q4 -12 4 -28q0 -30 -8 -30q-20 0 -72 -14t-56 -28q-18 -70 -18 -186v-446q0 -226 96 -360t272 -134q342 0 342 450v500q0 122 -14 176q-6 16 -69 31t-89 15q-8 0 -8 23t8 31q26 -2 104 -7t132 -5q52 0 131 6t93 6
q4 -12 4 -30q0 -24 -8 -24q-20 0 -87 -16t-71 -30q-16 -62 -16 -186v-486q0 -310 -130 -431t-370 -121q-238 0 -366 140t-128 452v454q0 124 -14 178q-6 16 -57 29t-77 13q-8 0 -8 26z" />
    <glyph glyph-name="V" unicode="V" horiz-adv-x="1418" 
d="M34 1292q0 24 8 32q32 -2 76 -4t79 -4t75 -2q48 0 248 10q4 -8 3 -33t-7 -25q-14 0 -38 -4t-52 -20t-28 -42q0 -58 252 -674q54 -136 86 -212q6 -10 17 -5t15 15l300 724q38 98 38 140q0 28 -32 48t-61 25t-47 5q-8 0 -8 25t8 33q186 -10 214 -10q2 0 202 10q4 -12 4 -30
q0 -28 -8 -28q-90 0 -120 -56q-46 -84 -98 -206l-400 -956q-26 -66 -70 -66q-14 0 -20 12l-410 1034q-50 132 -90 192q-14 22 -58 34t-70 12q-8 0 -8 26z" />
    <glyph glyph-name="W" unicode="W" horiz-adv-x="2152" 
d="M32 1292q0 24 8 32q230 -10 252 -10q10 0 210 10q4 -8 3 -33t-7 -25q-14 0 -34 -3t-43 -18t-23 -37q0 -60 46 -148l414 -820q6 -10 16 -5t14 15l166 346l-210 432q-58 118 -116 192q-16 20 -54 33t-62 13q-8 0 -8 30q0 20 8 28q230 -10 252 -10q8 0 208 10q4 -8 3 -33
t-7 -25q-14 0 -33 -3t-42 -17t-23 -38q0 -52 46 -148l132 -270l140 294q28 62 28 116q0 34 -43 50t-75 16q-8 0 -8 25t8 33q160 -10 202 -10q8 0 208 10q4 -8 3 -33t-7 -25q-20 0 -69 -16t-69 -40q-36 -44 -116 -206l-154 -316l218 -448q12 -22 24 10l358 822q34 82 34 126
q0 34 -41 51t-73 17q-8 0 -8 25t8 33q160 -10 204 -10q46 0 76 2t62 4t60 4q4 -12 4 -30q0 -28 -8 -28q-20 0 -64 -15t-66 -41q-58 -68 -116 -202l-424 -960q-30 -64 -78 -64q-12 0 -18 10l-244 500l-216 -446q-30 -64 -78 -64q-12 0 -18 10l-520 1034q-58 118 -116 192
q-16 20 -54 33t-62 13q-8 0 -8 26z" />
    <glyph glyph-name="X" unicode="X" horiz-adv-x="1376" 
d="M14 20q0 32 8 32q16 0 43 3t69 17t64 36l428 560l-280 428q-62 98 -132 138q-54 32 -112 32q-8 0 -8 25t8 33q246 -10 250 -10q56 0 256 10q4 -8 3 -33t-7 -25q-36 0 -78 -15t-42 -49q0 -24 24 -60l230 -350q8 12 47 61t56 71t52 68t52 71t38 57t30 52t9 32q0 22 -41 42
t-99 20q-8 0 -8 25t8 33q186 -10 254 -10q24 0 224 10q4 -8 3 -33t-7 -25q-28 0 -100 -16t-92 -42l-376 -492l384 -584q26 -40 83 -60t113 -20q10 0 10 -32q0 -18 -4 -26q-200 10 -210 10q-12 0 -292 -10q-8 8 -8 33t8 25q28 0 72 16t44 40q0 8 -10 24l-300 458
q-328 -440 -328 -480q0 -8 9 -20t43 -25t84 -13q8 0 8 -32q0 -20 -4 -26q-186 10 -226 10q-46 0 -246 -10q-4 12 -4 26z" />
    <glyph glyph-name="Y" unicode="Y" horiz-adv-x="1298" 
d="M30 1292q0 24 8 32q32 -2 108 -7t132 -5q24 0 264 12q4 -8 3 -31t-7 -23q-34 0 -77 -17t-43 -51q0 -22 22 -60l224 -424q10 -10 20 4q272 412 272 482q0 22 -40 44t-98 22q-8 0 -8 23t8 31q222 -12 236 -12q62 0 128 6t84 6q4 -12 4 -30q0 -24 -8 -24q-24 0 -84 -18
t-80 -44q-76 -118 -221 -358t-145 -268v-304q0 -124 16 -186q4 -14 54 -29t68 -15q8 0 8 -26q0 -16 -4 -28q-200 10 -224 10q-6 0 -236 -10q-8 8 -8 28q0 26 8 26q24 0 73 14t55 30q16 62 16 192v250q0 28 -43 111t-249 453q-32 60 -49 83t-49 45q-22 16 -66 30t-64 14
q-8 0 -8 22z" />
    <glyph glyph-name="Z" unicode="Z" horiz-adv-x="1200" 
d="M58 978q54 248 66 352q20 -6 145 -12t159 -6h218q140 0 420 20q6 -2 13 -26t7 -40l-748 -1114q-14 -20 -14 -30q0 -20 28 -20h452q72 0 124 21t85 65t48 73t35 83q4 6 28 6q30 0 48 -18q-64 -208 -88 -332h-992q-16 18 -16 52q0 24 8 34l766 1130h-424q-132 0 -189 -55
t-95 -193q-2 -8 -20 -8q-46 0 -64 18z" />
    <glyph glyph-name="bracketleft" unicode="[" horiz-adv-x="722" 
d="M242 -158v1592q0 46 38 46q72 0 144 4t119 9t57 5q12 0 12 -24q0 -44 -36 -62q-94 -22 -202 -22q-6 0 -9 -4t-5 -8v-4v-1472q2 -16 14 -16q104 0 204 -34q24 -8 24 -44q0 -10 -3 -19t-7 -13l-2 -4q-146 24 -310 24q-38 0 -38 46z" />
    <glyph glyph-name="backslash" unicode="\" horiz-adv-x="860" 
d="M72 1510q14 12 42 12q78 0 98 -44l574 -1452q6 -12 6 -40q0 -54 -46 -64l-48 4z" />
    <glyph glyph-name="bracketright" unicode="]" horiz-adv-x="722" 
d="M114 1474q0 24 10 24h2q156 -18 320 -18q36 0 36 -46v-1592q0 -46 -36 -46q-72 0 -150 -6t-120 -12l-42 -6q-12 2 -12 24q0 20 12 40l18 16q92 34 200 34q6 0 9 4t3 8l2 4v1472q-2 16 -14 16q-48 0 -99 5t-77 11l-26 6l-2 2q-4 2 -8 5t-9 8t-8 11t-6 16t-3 20z" />
    <glyph glyph-name="asciicircum" unicode="^" horiz-adv-x="890" 
d="M142 998q2 6 50 51t114 127t110 178q12 26 20 26q18 0 29 -11t19 -30t36 -65t66 -98q20 -26 60 -68t71 -73t33 -35q0 -10 -8 -30t-18 -20q-24 0 -117 80t-163 164q-64 -82 -157 -163t-119 -81q-8 0 -15 12t-9 24z" />
    <glyph glyph-name="underscore" unicode="_" horiz-adv-x="936" 
d="M0 -66q10 92 30 92h898q8 0 8 -10q0 -16 -20 -90q-2 -6 -5 -9t-5 -3h-2h-890q-14 0 -14 20z" />
    <glyph glyph-name="grave" unicode="`" horiz-adv-x="654" 
d="M208 1326q0 8 5 17t25 20t52 11q50 0 68 -18q34 -40 80 -106t76 -115t30 -55q0 -26 -24 -26q-26 0 -169 111t-143 161z" />
    <glyph glyph-name="a" unicode="a" horiz-adv-x="846" 
d="M78 182q0 44 22 83t52 64t82 51t89 39t97 33t84 30q18 6 18 30v150q0 64 -40 99t-96 35q-60 0 -100 -41t-40 -107q0 -70 -82 -70q-56 0 -78 38q0 86 126 171t256 85q110 0 158 -53t48 -171v-462q0 -42 22 -70t60 -28q28 0 70 28q8 0 8 -16q0 -26 -10 -42
q-82 -70 -140 -70q-46 0 -88 38t-58 80q-2 0 -15 -13t-35 -30t-51 -35t-68 -30t-79 -12q-92 0 -152 49t-60 147zM246 212q0 -54 34 -83t88 -29t104 33t50 67v206q-16 -8 -78 -28t-97 -35t-68 -50t-33 -81z" />
    <glyph glyph-name="b" unicode="b" horiz-adv-x="998" 
d="M14 1280q0 32 12 32q60 6 111 16t80 20t49 19t30 15l8 6h4q8 0 16 -11t10 -21q-22 -64 -22 -174v-350q0 -22 6 -22q2 0 6 2q28 20 86 42t102 22q192 0 301 -131t109 -279q0 -190 -141 -334t-311 -144q-74 0 -141 13t-77 13q-18 0 -45 -11t-31 -11q-8 0 -25 6t-17 14
q0 2 6 33t12 91t6 134v828q0 68 -12 128q-10 32 -102 32h-18q-12 0 -12 22zM312 192q0 -62 59 -91t137 -29q114 0 178 108t64 244q0 158 -83 256t-219 98q-56 0 -96 -31t-40 -89v-466z" />
    <glyph glyph-name="c" unicode="c" horiz-adv-x="810" 
d="M74 418q0 184 100 319t288 135q220 0 304 -102q0 -134 -74 -134q-34 0 -52 15t-46 55q-62 92 -148 92q-82 0 -149 -78t-67 -232q0 -160 79 -266t219 -106q42 0 80 8t65 19t46 22t33 21l14 10q12 0 12 -26q0 -16 -12 -36q-40 -56 -118 -101t-170 -45q-166 0 -285 125
t-119 305z" />
    <glyph glyph-name="d" unicode="d" horiz-adv-x="994" 
d="M76 392q0 194 137 341t309 147q86 0 150 -34q14 0 14 36v216q0 68 -12 128q-10 32 -102 32h-18q-12 0 -12 22q0 32 12 32q60 6 111 16t80 20t49 19t30 15l8 6h4q8 0 16 -11t10 -21q-22 -64 -22 -174v-900q0 -96 12 -152q4 -14 22 -22t37 -10t37 -2l18 -2q6 -2 6 -24
q0 -30 -12 -30q-30 -2 -67 -8t-70 -13t-61 -14t-46 -13l-18 -4q-12 0 -12 34v24q0 12 -8 8q-112 -62 -212 -62q-166 0 -278 118t-112 282zM248 450q0 -146 78 -253t216 -107q68 0 106 31t38 83v476q0 42 -45 79t-145 37q-116 0 -182 -104t-66 -242z" />
    <glyph glyph-name="e" unicode="e" horiz-adv-x="860" 
d="M74 418q0 210 113 332t283 122q92 0 162 -35t107 -90t54 -112t17 -113q0 -40 -12 -49t-46 -9h-504q-16 0 -16 -10q0 -126 76 -232t220 -106q42 0 80 8t65 19t46 22t33 21l14 10q12 0 12 -26q0 -16 -12 -36q-40 -56 -118 -101t-170 -45q-166 0 -285 125t-119 305zM236 562
q0 -14 12 -14h390q10 0 10 20q0 64 -54 147t-144 83q-104 0 -159 -89t-55 -147z" />
    <glyph glyph-name="f" unicode="f" horiz-adv-x="602" 
d="M54 13q-1 7 -1 14t1 13q2 12 6 12q24 0 68 13t48 27q20 78 20 178v460q0 14 -10 14h-106q-6 0 -6 12q0 18 32 50t68 32h12q10 0 10 12v26q0 210 125 362t273 152q144 0 190 -78q0 -126 -72 -126q-26 0 -50 31t-55 63t-75 32q-88 0 -136 -108t-48 -254v-102q0 -10 10 -10
h222q10 0 10 -14q0 -32 -24 -80h-206q-12 0 -12 -12v-462q0 -108 18 -178q4 -14 49 -27t63 -13q6 0 8 -24t-2 -34q-200 10 -214 10q-6 0 -210 -10q-4 4 -6 19z" />
    <glyph glyph-name="g" unicode="g" horiz-adv-x="948" 
d="M58 -232q0 124 196 212q-54 8 -100 50t-46 102q0 52 45 108t101 92q-60 22 -111 95t-51 157q0 118 99 199t243 81q74 0 170 -26t158 -26h116q12 -4 12 -50q0 -28 -12 -28h-142q-8 0 -8 -6l20 -48q22 -48 22 -96q0 -108 -96 -194t-236 -86q-64 0 -112 8q-26 -14 -55 -50
t-29 -64t16 -45t46 -24t58 -10t66 -3h14q248 -4 348 -51t100 -141q0 -154 -130 -265t-334 -113h-10q-136 0 -245 54q-113 56 -113 168zM198 -188q0 -86 89 -139t197 -53q120 0 197 64t77 146q0 84 -82 113t-326 29q-4 0 -12 -4q-2 -2 -18 -9t-20 -9t-18 -11t-19 -12t-17 -12
t-16 -16t-12 -17t-11 -20t-6 -23t-3 -27zM246 592q0 -92 57 -156t133 -64q78 0 129 60t51 144q0 92 -57 156t-133 64q-78 0 -129 -60t-51 -144z" />
    <glyph glyph-name="h" unicode="h" horiz-adv-x="1060" 
d="M36 27q0 25 8 25q24 0 71 13t51 27q14 58 14 138v868q0 68 -12 128q-10 32 -102 32h-18q-12 0 -12 22q0 32 12 32q60 6 111 16t80 20t49 19t28 15l10 6h4q8 0 16 -11t10 -21q-22 -64 -22 -174v-438q0 -8 4 -8q2 0 6 4q44 48 125 92t155 44q134 0 192 -96t58 -296v-216
q0 -114 16 -176q4 -14 52 -27t68 -13q6 0 8 -24q1 -8 1 -14q0 -13 -3 -20q-200 10 -214 10q-6 0 -210 -10q-8 8 -8 33t8 25q24 0 67 13t47 27q14 58 14 140v212q0 184 -51 247t-157 63q-60 0 -119 -47t-59 -83v-354q0 -116 16 -178q4 -14 52 -27t68 -13q6 0 8 -24t-2 -34
q-200 10 -214 10q-12 0 -218 -10q-8 8 -8 33z" />
    <glyph glyph-name="i" unicode="i" horiz-adv-x="538" 
d="M64 27q0 25 8 25q24 0 71 13t51 27q14 58 14 140v378q0 78 -28 108q-20 24 -49 33t-48 9t-19 4q0 48 12 50q212 32 276 52l4 2h6q8 0 10 -17t0 -25q-10 -80 -10 -144v-412q0 -116 16 -178q4 -14 52 -27t68 -13q6 0 8 -24q1 -8 1 -14q0 -13 -3 -20q-200 10 -214 10
t-218 -10q-8 8 -8 33zM170 1186q0 42 29 71t71 29t71 -29t29 -71t-29 -71t-71 -29t-71 29t-29 71z" />
    <glyph glyph-name="j" unicode="j" horiz-adv-x="476" 
d="M-48 -418l24 12q24 12 55 42t63 80t54 148t22 226v520q0 78 -28 108q-20 24 -49 33t-48 9t-19 4q0 48 12 50q212 32 276 52q2 0 6 1l4 1q8 0 10 -17q1 -9 1 -15t-1 -10q-10 -80 -10 -144v-546q0 -254 -78 -376q-50 -78 -127 -138t-141 -84q-18 12 -26 30q-2 5 -2 8.5
t2 5.5zM118 1186q0 42 29 71t71 29t71 -29t29 -71t-29 -71t-71 -29t-71 29t-29 71z" />
    <glyph glyph-name="k" unicode="k" horiz-adv-x="992" 
d="M28 27q0 25 8 25q24 0 71 13t51 27q14 58 14 140v866q0 68 -12 128q-10 32 -102 32h-18q-12 0 -12 22q0 32 12 32q60 6 111 16t80 20t49 19t28 15l10 6h4q8 0 16 -11t10 -21q-22 -64 -22 -174v-700q42 10 50 18q44 38 92 78l72 60t46 40t30 32t8 24q0 24 -44 28t-46 8
q-14 40 2 46h158q30 0 63 2t78 4t79 4q8 -4 9 -18t-3 -26t-8 -12q-26 0 -74 -12t-64 -22q-34 -20 -130 -95t-166 -147q58 -62 142 -157t138 -154t74 -77q34 -28 86 -43t74 -15q8 0 8 -32q0 -18 -2 -22q-200 10 -218 10q-4 0 -208 -10q-8 8 -8 31t8 23q20 0 46 8t26 18
q0 4 -2 6l-292 316l-24 -6v-120q4 -132 16 -178q4 -14 52 -27t68 -13q6 0 8 -24t-2 -34q-200 10 -214 10q-12 0 -218 -10q-8 8 -8 33z" />
    <glyph glyph-name="l" unicode="l" horiz-adv-x="502" 
d="M30 27q0 25 8 25q24 0 71 13t51 27q14 58 14 140v866q0 68 -12 128q-10 32 -102 32h-18q-12 0 -12 22q0 32 12 32q60 6 111 16t80 20t49 19t30 15l8 6h4q8 0 16 -11t10 -21q-22 -64 -22 -174v-912q0 -116 16 -178q4 -14 52 -27t68 -13q6 0 8 -24q1 -8 1 -14q0 -13 -3 -20
q-200 10 -214 10q-12 0 -218 -10q-8 8 -8 33z" />
    <glyph glyph-name="m" unicode="m" horiz-adv-x="1600" 
d="M54 27q0 25 8 25q24 0 71 13t51 27q14 58 14 140v378q0 78 -28 108q-20 24 -49 33t-48 9t-19 4q0 48 12 50q212 32 276 52q2 0 6 1l4 1q8 0 10 -17t0 -25q-8 -56 -8 -80q0 -8 4 -8q2 0 6 4q46 48 125 91t151 43q80 0 133 -43t73 -99q150 142 310 142q252 0 252 -384v-222
q0 -116 16 -178q4 -14 52 -27t68 -13q6 0 8 -24q1 -8 1 -14q0 -13 -3 -20q-200 10 -214 10q-12 0 -218 -10q-8 8 -8 33t8 25q24 0 71 13t51 27q14 58 14 128v226q0 308 -202 308q-74 0 -128 -43t-54 -71l2 -8v-10q8 -50 8 -144v-226q0 -98 16 -160q4 -14 52 -27t68 -13
q6 0 8 -24t-2 -34q-200 10 -214 10q-12 0 -218 -10q-8 8 -8 33t8 25q24 0 71 13t51 27q14 58 14 140v204q0 318 -192 318q-60 0 -121 -45t-61 -87v-352q0 -116 16 -178q4 -14 52 -27t68 -13q6 0 8 -24t-2 -34q-200 10 -214 10q-12 0 -218 -10q-8 8 -8 33z" />
    <glyph glyph-name="n" unicode="n" horiz-adv-x="1086" 
d="M58 27q0 25 8 25q24 0 71 13t51 27q14 58 14 140v378q0 78 -28 108q-20 24 -49 33t-48 9t-19 4q0 48 12 50q212 32 276 52q2 0 6 1l4 1q8 0 10 -17t0 -25q-8 -56 -8 -80q0 -8 4 -8q2 0 6 4q46 48 125 91t151 43q140 0 196 -100t56 -324v-182q0 -116 16 -178q4 -14 52 -27
t68 -13q6 0 8 -24q1 -8 1 -14q0 -13 -3 -20q-200 10 -214 10q-4 0 -210 -10q-8 8 -8 33t8 25q24 0 67 13t47 27q14 58 14 140v200q0 186 -48 254t-156 68q-64 0 -123 -47t-59 -85v-352q0 -116 16 -178q4 -14 52 -27t68 -13q6 0 8 -24t-2 -34q-200 10 -214 10q-12 0 -218 -10
q-8 8 -8 33z" />
    <glyph glyph-name="o" unicode="o" horiz-adv-x="1020" 
d="M74 432q0 186 124 314t310 128q180 0 308 -130t128 -312q0 -184 -125 -315t-307 -131t-310 131t-128 315zM246 462q0 -164 85 -281t199 -117q106 0 174 100t68 240q0 162 -86 277t-200 115q-106 0 -173 -97t-67 -237z" />
    <glyph glyph-name="p" unicode="p" horiz-adv-x="1022" 
d="M34 -419q0 25 8 25q24 0 71 13t51 27q14 58 14 140v826q0 78 -28 108q-20 24 -49 33t-48 9t-19 4q0 48 12 50q212 32 276 52q2 0 6 1l4 1q6 0 6 -11t-2 -27t-2 -18v-12q28 20 93 45t111 25q192 0 300 -129t108 -275q0 -192 -134 -338t-304 -146q-30 0 -53 2t-41 7t-28 9
t-26 11t-20 9q-8 -10 -8 -26v-172q0 -116 16 -178q4 -14 52 -27t68 -13q6 0 8 -25t-2 -33q-200 10 -214 10q-12 0 -218 -10q-8 8 -8 33zM332 196q0 -54 58 -91t126 -37q118 0 188 106t70 238q0 168 -89 265t-211 97q-62 0 -102 -33t-40 -95v-450z" />
    <glyph glyph-name="q" unicode="q" horiz-adv-x="978" 
d="M76 406q0 176 137 325t317 149q74 0 144 -11t80 -11q18 0 45 8t31 8q6 0 24 -6t18 -14q0 -2 -8 -36t-16 -96t-8 -136v-788q0 -92 16 -154q4 -14 52 -27t68 -13q6 0 8 -24q1 -8 1 -14q0 -13 -3 -20q-200 10 -214 10q-12 0 -218 -10q-8 8 -8 33t8 25q24 0 71 13t51 27
q14 58 14 140v248q0 10 -3 17t-11 3q-120 -60 -192 -60q-174 0 -289 126t-115 288zM248 452q0 -178 88 -270t214 -92q46 0 91 27t45 93v464q0 54 -50 88t-140 34q-88 0 -147 -62t-80 -135t-21 -147z" />
    <glyph glyph-name="r" unicode="r" horiz-adv-x="760" 
d="M66 27q0 25 8 25q24 0 71 13t51 27q14 58 14 140v378q0 78 -28 108q-20 24 -49 33t-48 9t-19 4q0 48 12 50q212 32 276 52q2 0 6 1l4 1q8 0 10 -17t0 -25l-12 -100q36 54 99 101t125 47q118 0 156 -58q0 -70 -22 -102t-54 -32q-36 0 -66 34t-82 34q-62 0 -108 -58
t-46 -122v-300q0 -116 16 -178q4 -14 53 -27t69 -13q6 0 8 -24t-2 -34q-200 10 -216 10q-12 0 -218 -10q-8 8 -8 33z" />
    <glyph glyph-name="s" unicode="s" horiz-adv-x="718" 
d="M82 224q16 12 24 12q30 0 32 -12q12 -60 75 -117t137 -57q64 0 105 35t41 101q0 34 -13 63t-42 52t-54 38t-71 39t-68 38q-156 90 -156 214q0 108 87 176t203 68q44 0 111 -11t93 -15q20 -92 24 -204q0 -10 -26 -10q-28 0 -30 14q-10 56 -57 106t-107 50
q-144 0 -144 -118q0 -30 8 -53t31 -44t35 -30t53 -32t51 -29q8 -4 47 -27t55 -33t47 -34t45 -43t27 -48t13 -59q0 -118 -92 -197t-216 -79q-42 0 -77 5t-83 17t-74 16q-12 32 -23 100t-11 108z" />
    <glyph glyph-name="t" unicode="t" horiz-adv-x="628" 
d="M34 790q0 12 2 14q58 26 126 106q22 26 43 59t35 57t14 26q60 0 60 -10v-198q52 0 158 -1t112 -1q16 0 16 -18q0 -36 -20 -76h-266v-490q0 -80 41 -128t107 -48q60 0 124 38q6 4 18 -17q10 -18 10 -22q0 -18 -92 -64q-62 -31 -128 -31q-100 0 -167 66t-67 188v508h-116
q-10 0 -10 42z" />
    <glyph glyph-name="u" unicode="u" horiz-adv-x="1034" 
d="M58 764q0 48 12 50q212 32 276 52q2 0 6 1l4 1q8 0 10 -17t0 -25q-12 -96 -12 -148v-270q0 -154 46 -227t150 -73q60 0 114 47t54 81v374q0 78 -28 108q-20 24 -49 33t-48 9t-19 4q0 48 12 50q212 32 276 52q2 0 6 1l4 1q8 0 10 -17t0 -25q-12 -96 -12 -144v-400
q0 -86 14 -152q4 -14 22 -22t38 -10t40 -2l18 -2q6 -2 6 -22q0 -6 -5 -19t-11 -13q-30 -2 -67 -8t-69 -14t-60 -16t-44 -14l-18 -4q-16 0 -16 32v102l-4 10q-132 -142 -262 -142q-74 0 -127 37t-78 98t-35 118t-10 119v252q0 78 -28 108q-20 24 -49 33t-48 9t-19 4z" />
    <glyph glyph-name="v" unicode="v" horiz-adv-x="986" 
d="M-4 836q0 24 8 32q206 -10 208 -10l200 10q4 -8 1 -33t-9 -25q-98 0 -98 -34q0 -4 2 -8l240 -542l202 460q16 38 16 60q0 64 -144 64q-8 0 -8 25t8 33q22 -2 82 -6t108 -4l200 10q4 -12 4 -30q0 -28 -14 -28q-28 0 -74 -16t-62 -52l-318 -718q-4 -14 -24 -30t-34 -16
t-18 8q-34 74 -149 344t-201 440q-20 40 -118 40q-8 0 -8 26z" />
    <glyph glyph-name="w" unicode="w" horiz-adv-x="1468" 
d="M18 836q0 24 8 32q30 -2 66 -4t66 -4t66 -2l200 10q4 -8 3 -33t-7 -25q-100 0 -100 -46q0 -6 25 -60t87 -187t126 -277q34 98 76 216t59 168t17 58q0 10 -9 32t-19 38l-10 18q-12 18 -38 30q-20 10 -64 10q-8 0 -8 25t8 33q30 -2 65 -4t64 -4t65 -2q34 0 63 2t67 4t66 4
q4 -12 4 -34t-6 -24q-96 0 -96 -78q0 -42 220 -492q30 92 76 222t67 193t21 85q0 70 -132 70h-8q-8 0 -8 25t8 33q30 -2 67 -4t68 -4t67 -2q34 0 59 2t57 4t62 4q4 -12 4 -30q0 -28 -10 -28q-26 0 -70 -17t-58 -55l-262 -716q-16 -44 -56 -44q-20 0 -24 8l-246 588
l-202 -552q-2 -6 -8 -15t-19 -19t-27 -10q-20 0 -24 8q-48 108 -109 259t-115 272t-126 249q-26 44 -108 44q-8 0 -8 26z" />
    <glyph glyph-name="x" unicode="x" horiz-adv-x="934" 
d="M8 22q0 30 8 30q134 20 180 84l208 278q0 2 1 6t1 6q0 4 -4 12l-206 302q-18 26 -74 48t-90 22l-6 30q4 20 8 28q194 -10 200 -10q4 0 210 10q2 -8 2 -24q0 -34 -6 -34q-80 0 -80 -34q0 -8 10 -24l130 -202q14 22 42 63t45 66t31 53t14 42q0 18 -23 25t-52 8t-33 3
q-6 2 -6 32q0 18 6 26q204 -10 210 -10t182 10q4 -20 4 -28q0 -30 -6 -30q-132 -16 -174 -68l-192 -250q-4 -6 -4 -14q0 -10 6 -22l214 -316q54 -80 168 -88q6 0 6 -28q0 -20 -8 -30q-186 10 -188 10q-6 0 -222 -10q-4 20 -4 26q0 32 6 32q84 6 84 36q0 4 -4 12l-152 240
l-138 -206q-14 -22 -14 -38q0 -36 100 -44h10q6 0 6 -30q0 -20 -8 -28q-194 10 -200 10q-4 0 -194 -10q-4 16 -4 28z" />
    <glyph glyph-name="y" unicode="y" horiz-adv-x="908" 
d="M4 836q0 24 8 32q206 -10 216 -10q34 0 63 2t66 4t65 4q4 -12 4 -30q0 -28 -8 -28q-16 0 -53 -14t-41 -28v-4q0 -36 214 -522l152 438q14 42 14 62q0 30 -31 49t-83 19q-8 0 -8 26q0 24 8 32l78 -6t100 -4q44 0 96 4l78 6q4 -12 4 -30q0 -28 -8 -28q-26 0 -71 -18
t-59 -58l-358 -966q-46 -124 -104 -173t-106 -49q-42 0 -62 26t-20 52q0 44 28 64q166 0 220 172l24 72t22 68l-286 700q-22 48 -40 68q-18 18 -55 30t-59 12q-8 0 -8 26z" />
    <glyph glyph-name="z" unicode="z" horiz-adv-x="828" 
d="M58 46q0 6 2 8l514 714l-298 2q-40 0 -66 -19t-35 -39t-18 -51t-11 -37q-6 -12 -48 -12q-22 0 -22 6q0 8 14 95t18 147q118 -12 190 -12h244q112 0 244 16q6 -10 6 -48l-508 -694q-14 -20 -14 -28q0 -14 24 -14h262q84 0 123 42t61 118q4 22 16 22q44 0 58 -24l-42 -238
h-674q-40 24 -40 46z" />
    <glyph glyph-name="braceleft" unicode="{" horiz-adv-x="648" 
d="M126 620q0 24 8 38q58 14 89 26t61 45t30 83t-50 162t-50 176q0 164 92 257t226 93q8 0 8 -16q0 -38 -22 -42q-58 -4 -128 -66t-70 -150q0 -70 50 -182t50 -198q0 -92 -55 -160t-113 -70q60 -2 115 -66t55 -156q0 -86 -51 -187t-51 -171q0 -88 71 -156t127 -72
q22 -4 22 -44q0 -14 -8 -14q-130 0 -222 103t-92 257q0 60 48 169t48 159q0 26 -9 46t-17 32t-35 25t-35 17t-45 14t-41 12q-6 12 -6 36z" />
    <glyph glyph-name="bar" unicode="|" horiz-adv-x="528" 
d="M200 -230v1744q-2 12 10 16q48 14 100 14q8 0 12 -3t4 -5v-4l2 -1744q0 -10 -53 -22t-65 -12q-10 0 -10 16z" />
    <glyph glyph-name="braceright" unicode="}" horiz-adv-x="650" 
d="M108 -236q0 40 22 44q56 4 127 72t71 156q0 70 -51 171t-51 187q0 92 55 156t115 66q-58 2 -113 70t-55 160q0 86 50 198t50 182q0 88 -70 150t-128 66q-22 4 -22 42q0 16 8 16q134 0 226 -93t92 -257q0 -64 -50 -176t-50 -162t30 -83t61 -45t89 -26q8 -14 8 -38t-6 -36
q-8 -2 -35 -10t-38 -12t-33 -13t-32 -18t-22 -22t-17 -31t-5 -40q0 -50 48 -159t48 -169q0 -154 -92 -257t-222 -103q-8 0 -8 14z" />
    <glyph glyph-name="asciitilde" unicode="~" horiz-adv-x="1152" 
d="M112 552q0 42 48 78q62 46 104 62t108 16q94 0 236 -53t236 -53q14 0 28 2t24 5t24 10t21 10t22 14t19 14t21 16t21 17q18 -10 18 -34q0 -44 -46 -78q-62 -46 -103 -62t-107 -16q-94 0 -236 53t-238 53q-36 0 -72 -16t-51 -26t-59 -46q-18 10 -18 34z" />
    <glyph glyph-name="uni00A0" unicode="&#xa0;" horiz-adv-x="458" 
 />
    <glyph glyph-name="cent" unicode="&#xa2;" horiz-adv-x="928" 
d="M120 422q0 -208 112 -323t284 -115q158 0 296 150q12 12 12 36q0 6 -3 13t-5 11t-4 4t-13 -10t-31 -23t-46 -27t-65 -24t-79 -10q-150 0 -228 111t-78 275q0 160 66 235t150 75q42 0 77 -16t51 -33t46 -51q4 -4 11 -13t10 -13t10 -11l10 -10t8 -7t9 -6t9 -3t11 -1
q72 0 72 126q-30 54 -117 81t-187 27q-170 0 -279 -136t-109 -312zM392 -72l166 1020q70 0 70 -16l-166 -1022q-70 0 -70 18z" />
    <glyph glyph-name="sterling" unicode="&#xa3;" horiz-adv-x="946" 
d="M90 584q0 36 12 54h534q10 0 10 -20q0 -40 -30 -60h-516q-10 0 -10 26zM92 20q18 34 50 80t44 64q8 16 14 37t9 47t5 48t3 55t1 50v52v45q0 18 -9 166t-9 182q0 188 101 306t263 118q104 0 154 -74q0 -118 -60 -118q-42 0 -86 54t-86 54q-48 0 -80 -26t-45 -74t-17 -92
t-4 -106q0 -40 8 -202t8 -170q0 -196 -90 -348q46 18 144 18q58 0 168 -32t146 -32q26 0 49 18t35 37t30 53t22 40q12 0 25 -11t13 -25t-2 -18q-88 -232 -234 -232q-68 0 -202 37t-180 37q-70 0 -150 -76q-18 0 -28 13t-10 25z" />
    <glyph glyph-name="yen" unicode="&#xa5;" horiz-adv-x="1316" 
d="M46 1252q0 24 8 32q32 -2 105 -7t127 -5q16 0 250 12q4 -8 3 -31t-7 -23q-34 0 -75 -16t-41 -48q0 -22 20 -58l218 -412q10 -10 20 4q264 400 264 468q0 22 -38 42t-96 20q-8 0 -8 23t8 31q22 -2 82 -7t102 -5t276 12q4 -12 4 -30q0 -24 -8 -24q-26 0 -96 -17t-90 -41
q-84 -130 -219 -356t-135 -252v-56h184q10 0 10 -26q0 -32 -12 -50h-182v-80h184q10 0 10 -26q0 -32 -12 -50h-182q0 -130 14 -184q4 -14 52 -29t66 -15q8 0 8 -24q0 -18 -4 -30q-196 10 -216 10q-8 0 -228 -10q-8 8 -8 26q0 28 8 28q24 0 71 14t53 30q16 62 16 184h-184
q-10 0 -10 26q0 32 12 50h182v80h-184q-10 0 -10 26q0 32 12 50h182q0 28 -2 32q-8 36 -282 524q-36 70 -86 124q-18 18 -61 30t-67 12q-8 0 -8 22z" />
    <glyph glyph-name="dieresis" unicode="&#xa8;" horiz-adv-x="666" 
d="M54 1034q0 40 31 69t71 29t69 -30t29 -70t-30 -68t-70 -28t-70 29t-30 69zM420 1034q0 40 31 69t71 29t69 -30t29 -70t-30 -68t-70 -28t-70 29t-30 69z" />
    <glyph glyph-name="copyright" unicode="&#xa9;" horiz-adv-x="1206" 
d="M56 684q0 226 160 386t386 160t387 -160t161 -386t-161 -386t-387 -160t-386 160t-160 386zM122 684q0 -200 141 -342t341 -142t342 142t142 342t-142 342t-342 142t-341 -142t-141 -342zM318 672q0 122 80 208t202 86q124 0 224 -38q32 -114 32 -122q0 -18 -32 -18
q-6 0 -14 4q-4 20 -18 40t-59 43t-109 23q-80 0 -136 -62t-56 -146q0 -112 66 -174t144 -62q102 0 144 38q10 10 17 26t9 28t4 12q36 0 40 -6q0 -10 -16 -65t-24 -59q-94 -38 -212 -38q-122 0 -204 82t-82 200z" />
    <glyph glyph-name="guillemotleft" unicode="&#xab;" horiz-adv-x="938" 
d="M54 482q0 36 16 54q256 154 412 310q46 -12 46 -38q0 -12 -18 -31t-104 -101q-26 -26 -94 -97t-82 -85l174 -180q20 -20 40 -39t31 -30l21 -21l15 -15t9 -10t5 -9t1 -8q0 -8 -6 -15t-12 -10t-16 -6t-12 -5q-2 4 -39 37t-139 110t-234 161q-14 6 -14 28zM412 482
q0 36 16 54q256 154 412 310q46 -12 46 -38q0 -12 -18 -31t-104 -101q-26 -26 -94 -97t-82 -85l174 -180q20 -20 40 -39t31 -30l21 -21l15 -15t9 -10t5 -9t1 -8q0 -8 -6 -15t-12 -10t-16 -6t-12 -5q-2 4 -39 37t-139 110t-234 161q-14 6 -14 28z" />
    <glyph glyph-name="uni00AD" unicode="&#xad;" horiz-adv-x="750" 
d="M116 420q0 102 24 102h2l482 24h2q12 0 12 -18q0 -44 -7 -71t-13 -33l-6 -4l-482 -22h-4t-6 6t-4 16z" />
    <glyph glyph-name="registered" unicode="&#xae;" horiz-adv-x="1208" 
d="M58 814q0 226 160 386t386 160t387 -160t161 -386t-161 -387t-387 -161t-386 161t-160 387zM124 814q0 -200 141 -342t341 -142t342 142t142 342t-142 341t-342 141t-341 -141t-141 -341zM350 560q0 10 4 10q10 0 32 6t24 12q6 18 6 50l-2 32v310q2 16 2 32q0 32 -6 50
q-2 6 -23 13t-31 7q-2 0 -2 10q0 12 2 14q38 -6 96 -6q26 0 74 4t74 4q66 0 127 -38t61 -116q0 -84 -96 -126q-2 0 -2 -4q0 -24 140 -210q32 -42 80 -42q2 -4 2 -12q0 -16 -30 -16q-94 0 -145 43t-151 209q-10 16 -28 16q-14 2 -36 0q-4 0 -4 -14v-128q2 -60 8 -82
q2 -6 23 -12t29 -6q2 0 3 -10t-1 -14q-34 2 -126 2q-60 0 -100 -2q-4 4 -4 14zM518 882q0 -26 94 -26q28 0 52 27t24 65q0 110 -100 110q-44 0 -62 -6q-6 0 -6 -6l-2 -74v-90z" />
    <glyph glyph-name="acute" unicode="&#xb4;" horiz-adv-x="920" 
d="M1012 1080q0 6 31 57t76 116t79 103q18 18 68 18q32 0 52 -11t25 -20t5 -17q0 -50 -143 -161t-169 -111q-24 0 -24 26z" />
    <glyph glyph-name="cedilla" unicode="&#xb8;" horiz-adv-x="920" 
d="M1236 -258q0 10 9 19t19 9q12 0 34 -13t40 -13q40 0 63 19t23 47q0 32 -20 50t-42 18q-18 0 -52 -14q-4 0 -13 10t-7 16q8 12 32 49t32 53h42l-36 -46h50q38 0 63 -29t25 -69q0 -68 -54 -110t-134 -42q-42 0 -68 18q0 2 -3 11t-3 17z" />
    <glyph glyph-name="guillemotright" unicode="&#xbb;" horiz-adv-x="942" 
d="M54 808q0 8 6 15t12 10l16 8t12 5q156 -156 410 -310q18 -20 18 -54q0 -22 -16 -28q-116 -74 -212 -146t-139 -108t-59 -54q-46 12 -46 36q0 4 1 8t5 10t9 11l16 16t22 21t30 29l37 37l174 180q-14 14 -82 85t-94 97q-88 86 -104 103t-16 29zM412 808q0 8 6 15t12 10
l16 8t12 5q152 -152 412 -310q16 -18 16 -54q0 -22 -14 -28q-116 -74 -213 -146t-140 -108t-59 -54q-46 12 -46 36q0 6 3 12t12 16t20 20t36 34t51 50l174 180q-14 14 -82 85t-94 97q-118 114 -120 124q-2 4 -2 8z" />
    <glyph glyph-name="circumflex" unicode="&#x2c6;" horiz-adv-x="920" 
d="M1080 1030q6 8 44 51t64 75q44 54 74 106q12 20 16 20q10 0 20 -20q48 -78 72 -110q22 -28 49 -58t43 -46t16 -18q0 -46 -14 -46q-16 0 -78 45t-108 87q-44 -42 -104 -87t-76 -45q-18 0 -18 46z" />
    <glyph glyph-name="ring" unicode="&#x2da;" horiz-adv-x="920" 
d="M1000 1184q0 74 52 126t124 52t123 -52t51 -126t-51 -127t-123 -53t-124 53t-52 127zM1066 1184q0 -46 32 -79t78 -33q44 0 76 33t32 79t-31 78t-77 32t-78 -32t-32 -78z" />
    <glyph glyph-name="tilde" unicode="&#x2dc;" horiz-adv-x="826" 
d="M868 1056q0 56 55 98t101 42q56 0 138 -42t138 -42q72 0 102 68q4 2 12 2q18 0 18 -32q0 -56 -55 -98t-101 -42q-58 0 -142 43t-138 43q-66 0 -98 -70q-4 -2 -12 -2q-18 0 -18 32z" />
    <glyph glyph-name="uni0400" unicode="&#x400;" horiz-adv-x="1140" 
d="M58 1282q0 26 8 34q104 -4 238 -4q90 0 311 7t335 7q8 -58 30 -155t26 -115q-10 -10 -34 -10q-26 0 -28 14q-30 110 -84 141t-148 31h-134q-172 0 -176 -26q-12 -48 -12 -168v-320q0 -12 86 -12h108h81t53 8t36 10t21 26t15 35t14 57q2 14 28 14t36 -10v-378
q-8 -8 -34 -8q-22 0 -30 14q-14 56 -24 83t-16 32t-18 13q-22 16 -210 16q-146 0 -146 -18v-310q0 -132 20 -182q6 -20 136 -20h96q184 0 252 34q74 40 126 202q4 12 28 12q36 0 48 -12q-12 -36 -39 -109t-45 -128t-24 -95q-102 0 -322 4t-360 4l-240 -6q-6 6 -6 32t6 26
q26 0 77 14t61 32q14 24 14 188v756q0 116 -14 172q-6 14 -60 28t-78 14q-8 0 -8 26zM288 1662q0 22 26 41t78 19q24 0 36 -6q54 -40 146 -130t92 -104q0 -26 -20 -26q-38 0 -198 80t-160 126z" />
    <glyph glyph-name="afii10023" unicode="&#x401;" horiz-adv-x="1140" 
d="M58 1282q0 26 8 34q104 -4 238 -4q90 0 311 7t335 7q8 -58 30 -155t26 -115q-10 -10 -34 -10q-26 0 -28 14q-30 110 -84 141t-148 31h-134q-172 0 -176 -26q-12 -48 -12 -168v-320q0 -12 86 -12h108h81t53 8t36 10t21 26t15 35t14 57q2 14 28 14t36 -10v-378
q-8 -8 -34 -8q-22 0 -30 14q-14 56 -24 83t-16 32t-18 13q-22 16 -210 16q-146 0 -146 -18v-310q0 -132 20 -182q6 -20 136 -20h96q184 0 252 34q74 40 126 202q4 12 28 12q36 0 48 -12q-12 -36 -39 -109t-45 -128t-24 -95q-102 0 -322 4t-360 4l-240 -6q-6 6 -6 32t6 26
q26 0 77 14t61 32q14 24 14 188v756q0 116 -14 172q-6 14 -60 28t-78 14q-8 0 -8 26zM240 1556q0 42 29 71t71 29t71 -29t29 -71t-29 -71t-71 -29t-71 29t-29 71zM602 1556q0 42 29 71t71 29t71 -29t29 -71t-29 -71t-71 -29t-71 29t-29 71z" />
    <glyph glyph-name="afii10051" unicode="&#x402;" horiz-adv-x="1526" 
d="M54 1056l38 284q80 -20 138 -20q76 0 213 -4t225 -4q86 0 225 4t215 4q60 0 136 20l40 -284q-14 -14 -48 -14q-18 0 -20 10q-30 112 -70 145t-156 33q-210 0 -218 -30q-18 -64 -18 -202v-264q146 60 266 60q192 0 304 -138t112 -340q0 -244 -143 -411t-339 -245
q-14 8 -24 30q-2 8 -3 19t1 11q316 190 316 580q0 184 -83 291t-217 107q-92 0 -190 -34v-386q0 -116 18 -186q4 -14 56 -27t72 -13q6 0 6 -30q0 -16 -4 -28q-200 10 -230 10q-10 0 -240 -10q-8 8 -8 30q0 28 8 28q26 0 76 12t56 28q16 52 16 178v722q0 174 -20 208
q-12 30 -214 30q-114 0 -155 -33t-69 -145q-2 -10 -20 -10q-34 0 -48 14z" />
    <glyph glyph-name="afii10052" unicode="&#x403;" horiz-adv-x="1020" 
d="M58 1282q0 26 8 34q104 -4 238 -4q90 0 312 8t334 8q8 -58 31 -153t27 -119q-10 -10 -36 -10t-28 14q-30 110 -84 141t-148 31h-134q-172 0 -176 -26q-10 -48 -10 -168v-760q0 -116 18 -186q4 -14 56 -27t72 -13q8 0 8 -30q0 -16 -4 -28q-200 10 -232 10q-10 0 -240 -10
q-8 8 -8 30q0 28 8 28q26 0 77 12t57 28q14 54 14 180v770q0 118 -14 172q-6 16 -59 30t-79 14q-8 0 -8 24zM394 1482q0 14 92 104t146 130q12 6 36 6q52 0 78 -19t26 -41q0 -46 -160 -126t-198 -80q-20 0 -20 26z" />
    <glyph glyph-name="afii10053" unicode="&#x404;" horiz-adv-x="1322" 
d="M86 642q0 284 190 487t466 203q246 0 486 -48q-4 -268 -4 -290q0 -28 -42 -28q-20 0 -26 10q-6 34 -23 70t-58 87t-126 83t-201 32q-188 0 -324 -160t-148 -368l782 20v-114l-782 18q12 -240 147 -405t373 -165q194 0 306 116q28 30 49 78t31 81t16 33q14 0 31 -4t27 -8
l10 -4q0 -22 -29 -153t-41 -137q-144 -88 -476 -88q-264 0 -449 194t-185 460z" />
    <glyph glyph-name="afii10054" unicode="&#x405;" horiz-adv-x="982" 
d="M82 356q0 12 32 12t50 -18q68 -288 332 -288q100 0 170 60t70 170q0 40 -12 74t-25 56t-46 47t-51 37t-66 38t-66 36q-58 34 -81 48t-76 49t-77 62t-56 66t-45 83t-13 92q0 154 118 252t274 98q44 0 83 -5t63 -11l72 -18t84 -20q24 -108 24 -288q0 -12 -20 -12
q-50 0 -54 18q-10 90 -84 172t-184 82q-118 0 -167 -60t-49 -146q0 -38 14 -74t27 -58t52 -54t54 -42t69 -44t64 -40q12 -8 70 -43t81 -51t70 -54t68 -68t40 -75t19 -93q0 -160 -125 -263t-293 -103q-48 0 -102 7t-90 14t-91 20t-77 17q-50 246 -50 318z" />
    <glyph glyph-name="afii10055" unicode="&#x406;" horiz-adv-x="638" 
d="M76 24q0 28 8 28q28 0 79 12t57 28q14 54 14 178v774q0 122 -14 178q-6 14 -58 27t-78 13q-8 0 -8 28q0 26 8 30q36 0 113 -4t127 -4t129 4t105 4q4 -8 4 -28q0 -30 -8 -30q-20 0 -73 -13t-57 -27q-16 -64 -16 -186v-758q0 -124 16 -186q4 -14 57 -27t73 -13q8 0 8 -30
q0 -16 -4 -28q-200 10 -234 10q-10 0 -240 -10q-8 8 -8 30z" />
    <glyph glyph-name="afii10056" unicode="&#x407;" horiz-adv-x="668" 
d="M54 1556q0 40 29 70t71 30t71 -30t29 -70q0 -44 -29 -72t-71 -28t-71 28t-29 72zM82 24q0 28 8 28q26 0 77 12t57 28q14 54 14 178v776q0 122 -14 178q-6 14 -58 27t-76 13q-8 0 -8 28q0 26 8 30q36 0 112 -4t126 -4t129 4t105 4q4 -8 4 -28q0 -30 -8 -30q-18 0 -71 -13
t-57 -27q-18 -64 -18 -186v-760q0 -126 18 -186q4 -14 56 -27t72 -13q8 0 8 -30q0 -16 -4 -28q-200 10 -234 10q-8 0 -238 -10q-8 8 -8 30zM414 1556q0 40 30 70t72 30t71 -30t29 -70q0 -44 -29 -72t-71 -28t-72 29t-30 71z" />
    <glyph glyph-name="afii10057" unicode="&#x408;" horiz-adv-x="888" 
d="M54 -348q0 44 37 72t87 28q36 0 81 -43t71 -43q28 0 57 28t57 82t46 153t18 225v892q0 122 -14 178q-6 14 -58 27t-76 13q-8 0 -8 28q0 26 8 30q40 0 115 -5t125 -5t125 5t107 5q4 -8 4 -28q0 -30 -10 -30q-18 0 -70 -14t-56 -26q-18 -72 -18 -186v-868q0 -252 -141 -438
t-359 -186q-22 0 -48 8t-42 16l-14 8q-24 28 -24 74z" />
    <glyph glyph-name="afii10058" unicode="&#x409;" horiz-adv-x="1820" 
d="M20 -12v38q128 78 210 220q72 130 121 359t49 527v20l-2 40q-6 30 -30 42q-58 28 -158 28q-8 0 -8 30q0 20 4 28q292 -8 474 -8q110 0 510 10q4 -8 4 -28q0 -30 -8 -30q-20 0 -73 -13t-57 -27q-16 -64 -16 -186v-280q156 12 246 8q182 -8 317 -119t135 -263
q0 -172 -139 -278t-367 -106h-140h-272l-104 -6q-8 8 -8 30q0 28 8 28q28 0 79 12t57 28q14 54 14 178v774q0 140 -8 180q-12 16 -68 16h-208q-60 0 -73 -10t-13 -50q0 -842 -204 -1112q-78 -100 -144 -100q-84 0 -128 20zM1040 284q0 -138 34 -166q30 -28 108 -28
q36 0 75 4t94 21t97 45t72 80t30 122q0 130 -86 225t-270 95q-42 0 -146 -8q-8 -24 -8 -66v-324z" />
    <glyph glyph-name="afii10059" unicode="&#x40a;" horiz-adv-x="1968" 
d="M82 24q0 28 8 28q28 0 79 12t57 28q14 54 14 178v776q0 122 -14 178q-6 14 -58 27t-78 13q-8 0 -8 28q0 26 8 30q40 0 116 -5t124 -5q50 0 126 5t108 5q4 -8 3 -33t-7 -25q-20 0 -73 -13t-57 -27q-16 -64 -16 -186v-280l2 -6q196 -4 306 -4q114 0 294 4q4 4 4 8v286
q0 120 -12 178q-6 14 -58 27t-78 13q-8 0 -8 26t8 32q40 0 116 -5t126 -5t124 5t106 5q4 -8 4 -28q0 -30 -8 -30q-20 0 -73 -13t-57 -27q-16 -64 -16 -186v-280q156 12 246 8q182 -8 317 -119t135 -263q0 -172 -139 -278t-367 -106h-276q-100 0 -238 -6q-8 8 -8 33t8 25
q28 0 79 12t57 28q12 56 12 178v372l-4 8q-184 4 -294 4q-308 0 -308 -10v-366q0 -124 16 -186q4 -14 57 -27t73 -13q6 0 7 -24t-3 -34q-200 10 -234 10q-10 0 -240 -10q-8 8 -8 30zM1194 284q0 -138 34 -166q30 -28 108 -28q36 0 75 4t94 21t97 45t72 80t30 122
q0 130 -86 225t-270 95q-42 0 -146 -8q-8 -24 -8 -66v-324z" />
    <glyph glyph-name="afii10060" unicode="&#x40b;" horiz-adv-x="1638" 
d="M52 1056l38 284q80 -20 138 -20q76 0 213 -4t225 -4q86 0 225 4t215 4q62 0 136 20l40 -284q-14 -14 -48 -14q-18 0 -20 10q-30 112 -70 145t-156 33q-210 0 -218 -30q-18 -64 -18 -202v-238q160 40 302 40q60 0 120 -13t120 -42t98 -87t38 -136v-286q0 -80 14 -144
q6 -14 58 -27t78 -13q8 0 8 -28q0 -26 -8 -30q-40 0 -116 5t-124 5q-50 0 -126 -5t-108 -5q-4 8 -3 33t7 25q20 0 73 13t57 27q16 64 16 186v164q0 142 -80 199t-192 57q-116 0 -232 -26v-394q0 -116 18 -186q4 -14 56 -27t72 -13q6 0 6 -30q0 -16 -4 -28q-200 10 -230 10
q-10 0 -240 -10q-8 8 -8 30q0 28 8 28q26 0 76 12t56 28q16 52 16 178v722q0 174 -20 208q-12 30 -214 30q-114 0 -155 -33t-69 -145q-2 -10 -20 -10q-34 0 -48 14z" />
    <glyph glyph-name="afii10061" unicode="&#x40c;" horiz-adv-x="1410" 
d="M84 24q0 28 8 28q26 0 77 12t57 28q14 54 14 178v776q0 122 -14 178q-6 14 -58 27t-76 13q-8 0 -8 28q0 26 8 30q40 0 115 -5t123 -5q50 0 126 5t108 5q4 -8 3 -33t-7 -25q-20 0 -72 -13t-56 -27q-18 -64 -18 -186v-302q0 -16 14 -16h14q24 0 34 2q70 8 98 22t70 54
q14 12 26 27t25 37t22 37t24 48t23 51t28 64t30 68q94 208 266 212q50 0 80 -23t30 -57q0 -24 -26 -41t-58 -17h-44q-64 0 -109 -53t-119 -207q-50 -102 -104 -164t-90 -84v-6q212 -64 286 -190q10 -18 66 -126t100 -178q30 -46 60 -74t72 -41t61 -16t77 -9q8 0 8 -26
t-4 -36q-12 0 -75 3t-97 3q-192 0 -290 158q-20 30 -79 136t-87 156q-50 100 -116 141t-154 45q-12 2 -48 2q-14 0 -14 -16v-344q0 -126 18 -186q4 -14 56 -27t72 -13q6 0 7 -24t-3 -34q-200 10 -234 10q-8 0 -238 -10q-8 8 -8 30zM560 1482q0 14 92 103t148 131q8 6 36 6
q52 0 78 -19t26 -41q0 -48 -159 -127t-199 -79q-22 0 -22 26z" />
    <glyph glyph-name="uni040D" unicode="&#x40d;" horiz-adv-x="1432" 
d="M84 22q0 30 8 30q20 0 73 13t57 27q16 64 16 186v760q0 124 -16 186q-4 14 -57 27t-73 13q-8 0 -8 30q0 16 4 28q200 -10 234 -10q10 0 240 10q8 -8 8 -30q0 -28 -8 -28q-28 0 -79 -12t-57 -28q-14 -54 -14 -178v-716q0 -52 -8 -144l580 1040q18 30 22 56v10q0 28 4 30
q128 -8 142 -8q48 0 105 4t89 4q4 -8 4 -28q0 -30 -8 -30q-20 0 -73 -13t-57 -27q-16 -64 -16 -186v-760q0 -124 16 -186q4 -14 57 -27t73 -13q8 0 8 -30q0 -16 -4 -28q-200 10 -234 10q-10 0 -240 -10q-8 8 -8 30q0 28 8 28q28 0 79 12t57 28q14 54 14 178v716q0 34 5 94
t5 74h-2l-588 -1054q-18 -30 -18 -78q0 -24 -4 -28q-128 8 -138 8q-48 0 -105 -4t-89 -4q-4 8 -4 28zM446 1662q0 22 25 41t77 19q26 0 38 -6q54 -42 146 -131t92 -103q0 -26 -22 -26q-38 0 -197 80t-159 126z" />
    <glyph glyph-name="afii10062" unicode="&#x40e;" horiz-adv-x="1370" 
d="M36 1292q0 26 8 30q42 0 114 -5t126 -5q56 0 144 5t114 5q4 -8 3 -30t-7 -22q-32 0 -75 -18t-43 -50q0 -20 20 -60l304 -630q8 -14 20 4q148 336 222 550q38 110 38 138q0 22 -43 44t-101 22q-6 0 -6 23t6 29q28 0 121 -5t135 -5q58 0 114 5t86 5q6 -6 6 -28
q0 -24 -10 -24q-22 0 -87 -19t-85 -43q-18 -30 -84 -166q-38 -78 -177 -401t-183 -415q-134 -276 -310 -284q-92 -4 -150 32q-18 34 -17 89t41 69q48 18 118 -34q16 -16 36 -22q14 -4 42 -4q68 0 119 85t51 131q0 42 -34 112q-34 76 -168 351t-172 347q-30 58 -48 82t-50 46
q-26 14 -69 29t-61 15q-8 0 -8 22zM446 1572q0 32 21 58t53 26q36 0 53 -27t15 -59q0 -82 108 -82q54 0 80 22t24 60q-2 34 17 60t55 26q34 0 54 -24t20 -58q0 -74 -69 -119t-181 -45h-2q-114 0 -181 45t-67 117z" />
    <glyph glyph-name="afii10145" unicode="&#x40f;" horiz-adv-x="1336" 
d="M76 36q0 26 10 26q24 0 78 14t60 28q12 48 12 172v770q0 134 -12 180q-6 16 -57 28t-77 12q-8 0 -8 28q0 22 8 30q230 -10 238 -10q34 0 234 10q4 -12 4 -28q0 -30 -8 -30q-20 0 -72 -13t-56 -27q-20 -68 -20 -186v-760q0 -118 10 -168q4 -28 248 -28q238 0 242 28
q8 40 8 168v760q0 124 -16 186q-4 14 -56 27t-74 13q-8 0 -8 30q0 16 4 28q200 -10 234 -10q10 0 240 10q8 -8 8 -30q0 -28 -8 -28q-26 0 -78 -12t-58 -28q-14 -54 -14 -180v-770q0 -116 14 -172q6 -14 61 -28t79 -14q8 0 8 -26t-8 -34q-230 -2 -410 -2q-58 -8 -86 -56
q-14 -16 -31 -136t-17 -174q0 -24 -30 -24t-30 24q0 54 -17 174t-31 136q-30 48 -88 56l-420 2q-10 10 -10 34z" />
    <glyph glyph-name="afii10017" unicode="&#x410;" horiz-adv-x="1368" 
d="M40 24q0 28 8 28q24 0 62 10t52 28q42 54 94 188l348 894q4 10 11 32t11 33t12 28t14 25t15 18t20 14t25 4l18 -6l400 -1056q36 -94 58 -144q12 -30 62 -49t74 -19q8 0 8 -38q0 -8 -4 -20q-200 10 -220 10q-2 0 -232 -10q-8 8 -7 33t9 25q24 0 60 10t42 26q4 16 4 32
q0 26 -7 61t-13 55l-8 22l-82 226q-6 8 -12 8q-78 6 -152 6q-104 0 -254 -10l-10 -6l-86 -220q-34 -100 -34 -138q0 -28 16 -40q18 -14 58 -23t58 -9q6 0 7 -24t-3 -34q-200 10 -206 10q-40 0 -70 -2t-67 -4t-71 -4q-8 8 -8 30zM494 606q0 -8 4 -8q104 -4 142 -4q88 0 182 6
l6 10l-162 442z" />
    <glyph glyph-name="afii10018" unicode="&#x411;" horiz-adv-x="1186" 
d="M80 26q0 26 6 26q26 0 77 14t61 32q14 24 14 188v756q0 124 -12 172q-6 14 -60 28t-78 14q-8 0 -8 26t8 34q104 -4 236 -4q92 0 313 7t335 7q8 -58 30 -155t26 -115q-10 -10 -34 -10q-26 0 -28 14q-32 110 -85 141t-147 31h-134q-172 0 -176 -26q-12 -48 -12 -168v-280
q156 12 244 8q182 -8 317 -119t135 -263q0 -172 -139 -278t-367 -106h-276l-240 -6q-6 6 -6 32zM412 284q0 -140 32 -166q30 -28 108 -28q36 0 75 4t94 21t97 45t72 80t30 122q0 130 -86 225t-270 95q-46 0 -150 -8q-2 -6 -2 -66v-324z" />
    <glyph glyph-name="afii10019" unicode="&#x412;" horiz-adv-x="1184" 
d="M72 1282q0 26 8 34q104 -4 238 -4q102 0 167 1t115 1q52 0 106 -9t111 -33t101 -60t72 -95t28 -131t-46 -134t-85 -86t-67 -34q-16 -6 -10 -12q78 -14 186 -113t108 -233q0 -172 -139 -273t-369 -101h-274l-242 -6q-6 6 -6 32t6 26q26 0 77 14t61 32q14 24 14 188v756
q0 118 -14 172q-6 16 -59 30t-79 14q-8 0 -8 24zM406 296q0 -152 32 -178q30 -28 108 -28q50 0 99 8t117 31t110 80t42 143q0 128 -86 219t-270 91q-44 0 -144 -8q-8 -24 -8 -66v-292zM406 760q0 -14 132 -14q64 0 112 6q82 8 137 57t55 131q0 138 -69 215t-205 77
q-92 0 -142 -14q-12 -2 -12 -18l-8 -202v-238z" />
    <glyph glyph-name="afii10020" unicode="&#x413;" horiz-adv-x="1020" 
d="M58 1282q0 26 8 34q104 -4 238 -4q90 0 312 8t334 8q8 -58 31 -153t27 -119q-10 -10 -36 -10t-28 14q-30 110 -84 141t-148 31h-134q-172 0 -176 -26q-10 -48 -10 -168v-760q0 -116 18 -186q4 -14 56 -27t72 -13q8 0 8 -30q0 -16 -4 -28q-200 10 -232 10q-10 0 -240 -10
q-8 8 -8 30q0 28 8 28q26 0 77 12t57 28q14 54 14 180v770q0 118 -14 172q-6 16 -59 30t-79 14q-8 0 -8 24z" />
    <glyph glyph-name="afii10021" unicode="&#x414;" horiz-adv-x="1326" 
d="M48 -330l10 368q0 26 8 34h76q26 0 40 8t26 34q86 170 132 449t46 569q-4 56 -12 90q-6 14 -60 28t-78 14q-8 0 -8 26t8 34q74 0 223 -4t223 -4q86 0 260 4t260 4q8 -8 8 -34t-8 -26q-24 0 -78 -14t-60 -28q-8 -30 -16 -172v-776q0 -154 20 -182q14 -20 144 -20h34
q10 -4 6 -26q-10 -44 -20 -111t-20 -152t-14 -113q-20 -12 -54 -12q-12 0 -22 3t-8 9q12 72 -1 152t-31 120q-24 58 -156 58h-544q-138 0 -176 -58q-24 -38 -52 -119t-30 -153q0 -12 -26 -12q-34 0 -50 12zM331 102q7 -14 45 -14h456q20 0 28 1t13 8t5 21v1074q0 24 -7 32
t-31 8h-334q-16 0 -21 -11t-5 -53q0 -622 -142 -1018q-14 -34 -7 -48z" />
    <glyph glyph-name="afii10022" unicode="&#x415;" horiz-adv-x="1140" 
d="M58 1282q0 26 8 34q104 -4 238 -4q90 0 311 7t335 7q8 -58 30 -155t26 -115q-10 -10 -34 -10q-26 0 -28 14q-30 110 -84 141t-148 31h-134q-172 0 -176 -26q-12 -48 -12 -168v-320q0 -12 86 -12h108h81t53 8t36 10t21 26t15 35t14 57q2 14 28 14t36 -10v-378
q-8 -8 -34 -8q-22 0 -30 14q-14 56 -24 83t-16 32t-18 13q-22 16 -210 16q-146 0 -146 -18v-310q0 -132 20 -182q6 -20 136 -20h96q184 0 252 34q74 40 126 202q4 12 28 12q36 0 48 -12q-12 -36 -39 -109t-45 -128t-24 -95q-102 0 -322 4t-360 4l-240 -6q-6 6 -6 32t6 26
q26 0 77 14t61 32q14 24 14 188v756q0 116 -14 172q-6 14 -60 28t-78 14q-8 0 -8 26z" />
    <glyph glyph-name="afii10024" unicode="&#x416;" horiz-adv-x="2112" 
d="M34 30q0 26 8 26q122 12 170 40q56 30 100 100t100 178t66 126q74 126 286 190v6q-36 22 -90 84t-104 164q-74 154 -119 207t-109 53h-44q-32 0 -58 17t-26 41q0 34 30 57t80 23q172 -4 266 -212q20 -46 48 -113t41 -97t33 -65t42 -57q32 -32 44 -43t38 -21t70 -12
q6 0 18 -1t16 -1h14q14 0 14 16v310q0 122 -14 178q-6 14 -58 27t-76 13q-8 0 -8 28q0 26 8 30q40 0 115 -5t123 -5q50 0 126 5t108 5q4 -8 3 -33t-7 -25q-20 0 -72 -13t-56 -27q-18 -64 -18 -186v-302q0 -16 14 -16h14q4 0 16 1t18 1q44 2 70 12t38 21t44 43q22 22 42 57
t33 65t41 97t48 113q94 208 266 212q50 0 80 -23t30 -57q0 -24 -26 -41t-58 -17h-44q-64 0 -109 -53t-119 -207q-50 -102 -104 -164t-90 -84v-6q212 -64 286 -190q10 -18 66 -126t100 -178q30 -46 60 -74t72 -41t61 -16t77 -9q8 0 8 -26t-4 -36q-12 0 -75 3t-97 3
q-192 0 -290 158q-20 30 -79 136t-87 156q-52 104 -105 143t-135 43q-12 2 -48 2q-14 0 -14 -16v-344q0 -126 18 -186q4 -14 56 -27t72 -13q6 0 7 -24t-3 -34q-200 10 -234 10q-8 0 -238 -10q-8 8 -8 30q0 28 8 28q26 0 77 12t57 28q14 54 14 178v352q0 16 -14 16
q-36 0 -48 -2q-82 -4 -135 -43t-105 -143q-28 -50 -87 -156t-79 -136q-98 -158 -290 -158q-34 0 -97 -3t-75 -3q-4 10 -4 36z" />
    <glyph glyph-name="afii10025" unicode="&#x417;" horiz-adv-x="1052" 
d="M58 200q-14 20 10 62q48 86 116 50q16 -8 26 -32t20 -58t20 -52q30 -68 104 -106q52 -26 130 -26q48 0 96 16t94 50t75 101t29 157q0 130 -70 207t-180 97q-42 8 -160 8q-12 16 -2 54q4 16 8 18q164 -12 262 59t98 201q0 116 -67 191t-147 75q-82 0 -144 -34t-96 -88
t-50 -94t-28 -80q-2 -8 -2 -10q-12 -12 -28 -12t-28 7t-10 19l28 292q50 12 122 33t120 29t122 8q178 0 281 -87t103 -225q0 -142 -106 -218q-88 -62 -170 -88v-6q152 -24 246 -107t94 -239q0 -132 -78 -226t-188 -135t-232 -41q-114 0 -186 32q-166 74 -232 198z" />
    <glyph glyph-name="afii10026" unicode="&#x418;" horiz-adv-x="1432" 
d="M84 22q0 30 8 30q20 0 73 13t57 27q16 64 16 186v760q0 124 -16 186q-4 14 -57 27t-73 13q-8 0 -8 30q0 16 4 28q200 -10 234 -10q10 0 240 10q8 -8 8 -30q0 -28 -8 -28q-28 0 -79 -12t-57 -28q-14 -54 -14 -178v-716q0 -52 -8 -144l580 1040q18 30 22 56v10q0 28 4 30
q128 -8 142 -8q48 0 105 4t89 4q4 -8 4 -28q0 -30 -8 -30q-20 0 -73 -13t-57 -27q-16 -64 -16 -186v-760q0 -124 16 -186q4 -14 57 -27t73 -13q8 0 8 -30q0 -16 -4 -28q-200 10 -234 10q-10 0 -240 -10q-8 8 -8 30q0 28 8 28q28 0 79 12t57 28q14 54 14 178v716q0 34 5 94
t5 74h-2l-588 -1054q-18 -30 -18 -78q0 -24 -4 -28q-128 8 -138 8q-48 0 -105 -4t-89 -4q-4 8 -4 28z" />
    <glyph glyph-name="afii10027" unicode="&#x419;" horiz-adv-x="1432" 
d="M84 22q0 30 8 30q20 0 73 13t57 27q16 64 16 186v760q0 124 -16 186q-4 14 -57 27t-73 13q-8 0 -8 30q0 16 4 28q200 -10 234 -10q10 0 240 10q8 -8 8 -30q0 -28 -8 -28q-28 0 -79 -12t-57 -28q-14 -54 -14 -178v-716q0 -52 -8 -144l580 1040q18 30 22 56v10q0 28 4 30
q128 -8 142 -8q48 0 105 4t89 4q4 -8 4 -28q0 -30 -8 -30q-20 0 -73 -13t-57 -27q-16 -64 -16 -186v-760q0 -124 16 -186q4 -14 57 -27t73 -13q8 0 8 -30q0 -16 -4 -28q-200 10 -234 10q-10 0 -240 -10q-8 8 -8 30q0 28 8 28q28 0 79 12t57 28q14 54 14 178v716q0 34 5 94
t5 74h-2l-588 -1054q-18 -30 -18 -78q0 -24 -4 -28q-128 8 -138 8q-48 0 -105 -4t-89 -4q-4 8 -4 28zM478 1572q0 32 21 58t53 26q36 0 53 -27t15 -59q0 -82 108 -82q54 0 80 22t24 60q-2 34 17 60t55 26q34 0 54 -24t20 -58q0 -74 -69 -119t-181 -45h-2q-114 0 -181 45
t-67 117z" />
    <glyph glyph-name="afii10028" unicode="&#x41a;" horiz-adv-x="1410" 
d="M84 24q0 28 8 28q26 0 77 12t57 28q14 54 14 178v776q0 122 -14 178q-6 14 -58 27t-76 13q-8 0 -8 28q0 26 8 30q40 0 115 -5t123 -5q50 0 126 5t108 5q4 -8 3 -33t-7 -25q-20 0 -72 -13t-56 -27q-18 -64 -18 -186v-302q0 -16 14 -16h14q24 0 34 2q70 8 98 22t70 54
q14 12 26 27t25 37t22 37t24 48t23 51t28 64t30 68q94 208 266 212q50 0 80 -23t30 -57q0 -24 -26 -41t-58 -17h-44q-64 0 -109 -53t-119 -207q-50 -102 -104 -164t-90 -84v-6q212 -64 286 -190q10 -18 66 -126t100 -178q30 -46 60 -74t72 -41t61 -16t77 -9q8 0 8 -26
t-4 -36q-12 0 -75 3t-97 3q-192 0 -290 158q-20 30 -79 136t-87 156q-50 100 -116 141t-154 45q-12 2 -48 2q-14 0 -14 -16v-344q0 -126 18 -186q4 -14 56 -27t72 -13q6 0 7 -24t-3 -34q-200 10 -234 10q-8 0 -238 -10q-8 8 -8 30z" />
    <glyph glyph-name="afii10029" unicode="&#x41b;" horiz-adv-x="1286" 
d="M26 -12v38q128 78 210 220q72 130 121 359t49 527v20l-2 40q-6 30 -30 42q-58 28 -158 28q-8 0 -8 30q0 20 4 28q8 0 97 -4t137 -4h560q38 0 102 4t88 4q4 -8 4 -28q0 -30 -8 -30q-20 0 -73 -13t-57 -27q-16 -64 -16 -186v-802v-4q0 -82 16 -138q4 -14 57 -27t73 -13
q8 0 8 -30q0 -16 -4 -28l-98 6h-272l-104 -6q-8 8 -8 30q0 28 8 28q28 0 79 12t57 28q14 54 14 178v774q0 140 -8 180q-12 16 -68 16h-208q-60 0 -73 -10t-13 -50q0 -842 -204 -1112q-78 -100 -144 -100q-82 0 -128 20z" />
    <glyph glyph-name="afii10030" unicode="&#x41c;" horiz-adv-x="1818" 
d="M52 24q0 28 10 28q28 0 83 13t71 31q34 34 38 174q4 208 9 410t9 317t4 147q0 50 -8 80q-6 14 -68 27t-90 13q-8 0 -8 30q0 24 8 28q38 0 106 -4t118 -4l184 8q16 -54 80 -217t165 -411t149 -372q2 -4 10 -4t10 8l310 756l80 240q26 0 86 -3t82 -3q68 0 224 6
q6 -12 6 -28q0 -30 -10 -30h-6q-22 0 -58 -12t-54 -26q-22 -18 -22 -136q0 -116 16 -810q2 -114 30 -184q8 -18 60 -31t74 -13q8 0 8 -28q0 -18 -4 -30q-200 10 -238 10q-8 0 -238 -10q-8 8 -8 32q0 26 8 26q20 0 61 10t59 20q22 14 22 86v106l-22 704q-2 32 -11 75t-19 43
q-4 0 -10 -16l-418 -998q-38 -86 -74 -86q-6 0 -18 4l-460 1162q-2 -192 -10 -439t-14 -408t-6 -165q0 -36 12 -52t72 -31t82 -15q8 0 8 -30q0 -16 -4 -28q-200 10 -232 10q-4 0 -234 -10q-10 10 -10 30z" />
    <glyph glyph-name="afii10031" unicode="&#x41d;" horiz-adv-x="1376" 
d="M76 24q0 28 8 28q28 0 79 12t57 28q14 54 14 178v776q0 122 -14 178q-6 14 -58 27t-78 13q-8 0 -8 28q0 26 8 30q40 0 116 -5t124 -5q50 0 126 5t108 5q4 -8 3 -33t-7 -25q-20 0 -73 -13t-57 -27q-16 -64 -16 -186v-300l2 -6q196 -4 306 -4q114 0 294 4q4 4 4 8v306
q0 120 -12 178q-6 14 -58 27t-78 13q-8 0 -8 26t8 32q40 0 116 -5t126 -5t124 5t106 5q4 -8 4 -28q0 -30 -8 -30q-20 0 -73 -13t-57 -27q-16 -64 -16 -186v-760q0 -124 16 -186q4 -14 57 -27t73 -13q8 0 8 -30q0 -16 -4 -28q-200 10 -230 10q-12 0 -242 -10q-8 8 -8 33t8 25
q28 0 79 12t57 28q12 56 12 178v352l-4 8q-184 4 -294 4q-308 0 -308 -10v-346q0 -124 16 -186q4 -14 57 -27t73 -13q6 0 7 -24t-3 -34q-200 10 -234 10q-10 0 -240 -10q-8 8 -8 30z" />
    <glyph glyph-name="afii10032" unicode="&#x41e;" horiz-adv-x="1456" 
d="M88 656q0 280 187 479t451 199t452 -199t188 -479t-188 -478t-452 -198t-451 198t-187 478zM286 700q0 -160 52 -302t162 -237t258 -95q128 0 224 83t141 206t45 263q0 160 -52 301t-162 236t-258 95q-190 0 -300 -166t-110 -384z" />
    <glyph glyph-name="afii10033" unicode="&#x41f;" horiz-adv-x="1336" 
d="M76 1276q0 24 10 34q450 2 582 2l578 -2q8 -8 8 -34t-8 -26q-24 0 -79 -14t-61 -28q-14 -56 -14 -172v-764q0 -126 14 -180q6 -16 58 -28t78 -12q8 0 8 -28q0 -22 -8 -30q-230 10 -240 10q-34 0 -234 -10q-4 12 -4 28q0 30 8 30q22 0 74 13t56 27q16 62 16 186v754
q0 128 -8 168q-4 28 -242 28q-244 0 -248 -28q-10 -50 -10 -168v-754q0 -118 20 -186q4 -14 56 -27t72 -13q8 0 8 -30q0 -16 -4 -28q-200 10 -234 10q-8 0 -238 -10q-8 8 -8 30q0 28 8 28q26 0 77 12t57 28q12 46 12 180v764q0 124 -12 172q-6 14 -60 28t-78 14
q-10 0 -10 26z" />
    <glyph glyph-name="afii10034" unicode="&#x420;" horiz-adv-x="1090" 
d="M80 1282q0 26 8 34l240 -4q60 0 142 4t140 4q66 0 133 -20t130 -60t103 -114t40 -172q0 -58 -25 -125t-73 -130t-129 -104t-181 -41q-112 0 -154 56q-12 14 -6 46q2 8 6 6q60 -22 134 -22q100 0 172 84t72 200q0 142 -62 225t-192 83q-90 0 -140 -14q-10 -2 -14 -15
t-7 -61t-3 -144v-714q0 -134 16 -174q10 -26 71 -42t87 -16q8 0 8 -28q0 -18 -4 -30q-200 10 -260 10l-244 -10q-6 6 -6 36q0 26 6 26q28 0 78 12t60 30q14 24 14 188v756q0 118 -14 172q-6 16 -59 30t-79 14q-8 0 -8 24z" />
    <glyph glyph-name="afii10035" unicode="&#x421;" horiz-adv-x="1312" 
d="M88 644q0 284 190 487t466 203q236 0 486 -50q-4 -268 -4 -288q0 -30 -42 -30q-20 0 -26 10q-6 26 -15 53t-38 70t-70 74t-116 54t-169 23q-196 0 -334 -173t-138 -391q0 -162 56 -298t177 -225t287 -89q198 0 306 116q28 30 49 79t32 82t17 33q12 0 29 -4t27 -8l10 -6
q0 -22 -28 -153t-40 -137q-146 -88 -478 -88q-264 0 -449 194t-185 462z" />
    <glyph glyph-name="afii10036" unicode="&#x422;" horiz-adv-x="1338" 
d="M56 1056l38 286q88 -22 138 -22q76 0 213 -4t225 -4t226 4t214 4q50 0 138 22l38 -286q-14 -14 -48 -14q-18 0 -20 10q-28 112 -69 145t-155 33q-212 0 -220 -30q-18 -64 -18 -200v-722q0 -116 18 -186q4 -14 56 -27t72 -13q8 0 8 -30q0 -16 -4 -28q-200 10 -232 10
q-10 0 -240 -10q-8 8 -8 30q0 28 8 28q26 0 77 12t57 28q14 54 14 178v724q0 174 -18 206q-16 30 -216 30q-114 0 -155 -33t-69 -145q-2 -10 -20 -10q-34 0 -48 14z" />
    <glyph glyph-name="afii10037" unicode="&#x423;" horiz-adv-x="1370" 
d="M36 1292q0 26 8 30q42 0 114 -5t126 -5q56 0 144 5t114 5q4 -8 3 -30t-7 -22q-32 0 -75 -18t-43 -50q0 -20 20 -60l304 -630q8 -14 20 4q148 336 222 550q38 110 38 138q0 22 -43 44t-101 22q-6 0 -6 23t6 29q28 0 121 -5t135 -5q58 0 114 5t86 5q6 -6 6 -28
q0 -24 -10 -24q-22 0 -87 -19t-85 -43q-18 -30 -84 -166q-38 -78 -177 -401t-183 -415q-134 -276 -310 -284q-92 -4 -150 32q-18 26 -18 76q0 32 20 60t56 28t83 -33t79 -33q68 0 119 85t51 131q0 42 -34 112q-34 76 -168 351t-172 347q-30 58 -48 82t-50 46q-26 14 -69 29
t-61 15q-8 0 -8 22z" />
    <glyph glyph-name="afii10038" unicode="&#x424;" horiz-adv-x="1210" 
d="M26 632q0 178 140 308t346 166q-4 92 -12 118q-6 16 -57 29t-77 13q-8 0 -8 26q0 24 8 32q230 -10 240 -10q32 0 232 10q4 -12 4 -30q0 -28 -8 -28q-20 0 -72 -14t-56 -28q-14 -52 -16 -106q204 -12 350 -131t146 -291q0 -182 -142 -314t-354 -166q4 -76 16 -124
q4 -14 56 -27t72 -13q8 0 8 -30q0 -16 -4 -28q-200 10 -232 10q-10 0 -240 -10q-8 8 -8 30q0 28 8 28q26 0 77 12t57 28q8 26 12 118q-202 16 -344 134t-142 288zM214 650q0 -130 84 -233t216 -129v734q-134 -36 -217 -139t-83 -233zM688 294q138 32 226 140t88 242
q0 132 -88 235t-226 123v-740z" />
    <glyph glyph-name="afii10039" unicode="&#x425;" horiz-adv-x="1376" 
d="M14 20q0 32 8 32q16 0 43 3t69 17t64 36l428 560l-280 428q-62 98 -132 138q-54 32 -112 32q-8 0 -8 25t8 33q246 -10 250 -10q56 0 256 10q4 -8 3 -33t-7 -25q-36 0 -78 -15t-42 -49q0 -24 24 -60l230 -350q8 12 47 61t56 71t52 68t52 71t38 57t30 52t9 32q0 22 -41 42
t-99 20q-8 0 -8 25t8 33q186 -10 254 -10q24 0 224 10q4 -8 3 -33t-7 -25q-28 0 -100 -16t-92 -42l-376 -492l384 -584q26 -40 83 -60t113 -20q10 0 10 -32q0 -18 -4 -26q-200 10 -210 10q-12 0 -292 -10q-8 8 -8 33t8 25q28 0 72 16t44 40q0 8 -10 24l-300 458
q-328 -440 -328 -480q0 -8 9 -20t43 -25t84 -13q8 0 8 -32q0 -20 -4 -26q-186 10 -226 10q-46 0 -246 -10q-4 12 -4 26z" />
    <glyph glyph-name="afii10040" unicode="&#x426;" horiz-adv-x="1382" 
d="M76 36q0 26 10 26q24 0 78 14t60 28q12 48 12 172v768q0 134 -12 180q-6 16 -57 28t-77 12q-8 0 -8 28q0 22 8 30q230 -10 238 -10q34 0 234 10q4 -12 4 -28q0 -30 -8 -30q-20 0 -72 -13t-56 -27q-20 -68 -20 -186v-758q0 -118 10 -168q4 -28 248 -28q238 0 242 28
q8 40 8 168v758q0 124 -16 186q-4 14 -56 27t-74 13q-8 0 -8 30q0 16 4 28q200 -10 234 -10q10 0 240 10q8 -8 8 -30q0 -28 -8 -28q-26 0 -78 -12t-58 -28q-14 -54 -14 -180v-768q0 -154 22 -184q14 -20 144 -20h34q10 -4 6 -26q-10 -44 -20 -111t-20 -152t-14 -113
q-20 -12 -54 -12q-12 0 -22 3t-8 9q12 72 -1 152t-31 120q-24 58 -156 58h-304l-582 2q-10 10 -10 34z" />
    <glyph glyph-name="afii10041" unicode="&#x427;" horiz-adv-x="1292" 
d="M38 1292q0 26 8 30q40 0 116 -5t124 -5q50 0 126 5t108 5q4 -8 3 -33t-7 -25q-20 0 -73 -13t-57 -27q-16 -64 -16 -186v-124q0 -142 80 -199t192 -57q120 0 238 26v362q0 120 -12 178q-6 14 -58 27t-78 13q-8 0 -8 26t8 32q40 0 116 -5t126 -5t124 5t106 5q4 -8 4 -28
q0 -30 -8 -30q-20 0 -73 -13t-57 -27q-10 -40 -14 -92v-950q4 -52 14 -90q4 -14 57 -27t73 -13q8 0 8 -30q0 -16 -4 -28q-200 10 -230 10q-12 0 -242 -10q-8 8 -8 33t8 25q28 0 79 12t57 28q12 56 12 178v328q-158 -42 -308 -42q-60 0 -120 13t-120 42t-98 87t-38 136v246
q0 80 -14 144q-6 14 -58 27t-78 13q-8 0 -8 28z" />
    <glyph glyph-name="afii10042" unicode="&#x428;" horiz-adv-x="1904" 
d="M86 30q0 26 10 26q24 0 78 14t60 28q12 48 12 172v774q0 134 -12 180q-6 16 -57 28t-77 12q-8 0 -8 28q0 22 8 30q230 -10 238 -10q34 0 234 10q4 -12 4 -28q0 -30 -8 -30q-20 0 -72 -13t-56 -27q-20 -68 -20 -186v-758q0 -118 10 -168q2 -28 186 -28q244 0 248 28
q10 50 10 168v764q0 134 -12 180q-6 16 -57 28t-77 12q-8 0 -8 28q0 22 8 30q230 -10 238 -10q34 0 234 10q4 -12 4 -28q0 -30 -8 -30q-20 0 -72 -13t-56 -27q-20 -68 -20 -186v-758q0 -118 10 -168q2 -24 192 -28h56q182 4 186 28q8 40 8 168v758q0 124 -16 186
q-4 14 -56 27t-74 13q-8 0 -8 30q0 16 4 28q200 -10 234 -10q10 0 240 10q8 -8 8 -30q0 -28 -8 -28q-26 0 -78 -12t-58 -28q-14 -54 -14 -180v-774q0 -116 14 -172q6 -14 61 -28t79 -14q8 0 8 -26t-8 -34q-116 -2 -418 1t-442 3q-198 0 -501 -2t-371 -2q-10 10 -10 34z" />
    <glyph glyph-name="afii10043" unicode="&#x429;" horiz-adv-x="1946" 
d="M82 30q0 26 10 26q24 0 78 14t60 28q12 48 12 172v774q0 134 -12 180q-6 16 -57 28t-77 12q-8 0 -8 28q0 22 8 30q230 -10 238 -10q34 0 234 10q4 -12 4 -28q0 -30 -8 -30q-20 0 -72 -13t-56 -27q-20 -68 -20 -186v-758q0 -118 10 -168q2 -28 186 -28q244 0 248 28
q10 50 10 168v764q0 134 -12 180q-6 16 -57 28t-77 12q-8 0 -8 28q0 22 8 30q230 -10 238 -10q34 0 234 10q4 -12 4 -28q0 -30 -8 -30q-20 0 -72 -13t-56 -27q-20 -68 -20 -186v-758q0 -118 10 -168q2 -24 192 -28h56q182 4 186 28q8 40 8 168v758q0 124 -16 186
q-4 14 -56 27t-74 13q-8 0 -8 30q0 16 4 28q200 -10 234 -10q10 0 240 10q8 -8 8 -30q0 -28 -8 -28q-26 0 -78 -12t-58 -28q-14 -54 -14 -180v-768q0 -154 22 -184q14 -20 144 -20h34q10 -4 6 -26q-10 -44 -20 -111t-20 -152t-14 -113q-20 -12 -54 -12q-12 0 -22 3t-8 9
q12 72 -1 152t-31 120q-24 58 -156 58h-586q-198 0 -501 -2t-371 -2q-10 10 -10 34z" />
    <glyph glyph-name="afii10044" unicode="&#x42a;" horiz-adv-x="1492" 
d="M46 1056q4 18 26 115t30 155q514 -14 528 -14l236 4q8 -8 8 -34t-8 -26q-24 0 -78 -14t-60 -28q-14 -56 -14 -172v-284q156 12 246 8q182 -8 317 -119t135 -263q0 -172 -139 -278t-367 -106h-276l-240 -6q-6 6 -6 32t6 26q26 0 77 14t61 32q14 24 14 188v752
q0 120 -12 168q-4 26 -176 26h-14q-94 0 -147 -31t-85 -141q-2 -14 -28 -14q-24 0 -34 10zM714 284q0 -138 34 -166q30 -28 108 -28q36 0 75 4t94 21t97 45t72 80t30 122q0 130 -86 225t-270 95q-42 0 -146 -8q-8 -24 -8 -66v-324z" />
    <glyph glyph-name="afii10045" unicode="&#x42b;" horiz-adv-x="1666" 
d="M84 26q0 26 6 26q26 0 77 14t61 32q14 24 14 188v760q0 122 -14 178q-6 14 -58 27t-78 13q-8 0 -8 28q0 26 8 30q40 0 116 -5t124 -5q50 0 126 5t108 5q4 -8 3 -33t-7 -25q-20 0 -73 -13t-57 -27q-16 -64 -16 -186v-280q156 12 244 8q182 -8 317 -119t135 -263
q0 -172 -139 -278t-367 -106h-276l-240 -6q-6 6 -6 32zM414 284q0 -138 34 -166q30 -28 108 -28q36 0 75 4t94 21t97 45t72 80t30 122q0 130 -86 225t-270 95q-42 0 -146 -8q-8 -24 -8 -66v-324zM1098 24q0 28 8 28q28 0 79 12t57 28q14 54 14 178v776q0 122 -14 178
q-6 14 -58 27t-78 13q-8 0 -8 28q0 26 8 30q36 0 113 -4t127 -4t129 4t105 4q4 -8 4 -28q0 -30 -8 -30q-20 0 -73 -13t-57 -27q-16 -64 -16 -186v-760q0 -124 16 -186q4 -14 57 -27t73 -13q8 0 8 -30q0 -16 -4 -28q-200 10 -234 10q-10 0 -240 -10q-8 8 -8 30z" />
    <glyph glyph-name="afii10046" unicode="&#x42c;" horiz-adv-x="1186" 
d="M84 26q0 26 6 26q26 0 77 14t61 32q14 24 14 188v760q0 122 -14 178q-6 14 -58 27t-78 13q-8 0 -8 28q0 26 8 30q40 0 116 -5t124 -5q50 0 126 5t108 5q4 -8 3 -33t-7 -25q-20 0 -73 -13t-57 -27q-16 -64 -16 -186v-280q156 12 244 8q182 -8 317 -119t135 -263
q0 -172 -139 -278t-367 -106h-276l-240 -6q-6 6 -6 32zM414 284q0 -138 34 -166q30 -28 108 -28q36 0 75 4t94 21t97 45t72 80t30 122q0 130 -86 225t-270 95q-42 0 -146 -8q-8 -24 -8 -66v-324z" />
    <glyph glyph-name="afii10047" unicode="&#x42d;" horiz-adv-x="1322" 
d="M56 366q38 16 68 16q6 0 16 -33t31 -81t49 -78q112 -116 306 -116q238 0 373 165t147 405l-782 -18v114l782 -20q-12 208 -148 368t-324 160q-116 0 -201 -32t-126 -83t-58 -87t-23 -70q-6 -10 -26 -10q-42 0 -42 28l-4 290q240 48 486 48q276 0 466 -203t190 -487
q0 -266 -185 -460t-449 -194q-332 0 -476 88q-12 6 -41 137t-29 153z" />
    <glyph glyph-name="afii10048" unicode="&#x42e;" horiz-adv-x="1886" 
d="M80 24q0 28 8 28q28 0 79 12t57 28q14 54 14 178v774q0 122 -14 178q-6 14 -58 27t-78 13q-8 0 -8 28q0 26 8 30q36 0 113 -4t127 -4t129 4t105 4q4 -8 4 -28q0 -30 -8 -30q-20 0 -73 -13t-57 -27q-16 -64 -16 -186v-300h244q24 256 182 426t386 170q246 0 409 -196
t163 -482q0 -282 -163 -478t-409 -196q-248 0 -409 194t-163 476h-240v-372q0 -124 16 -186q4 -14 57 -27t73 -13q8 0 8 -30q0 -16 -4 -28q-200 10 -234 10q-10 0 -240 -10q-8 8 -8 30zM850 700q0 -254 107 -444t293 -190q108 0 190 83t120 206t38 263q0 252 -107 441
t-295 189q-108 0 -189 -82t-119 -205t-38 -261z" />
    <glyph glyph-name="afii10049" unicode="&#x42f;" horiz-adv-x="1382" 
d="M32 26q0 16 6 28q118 0 314 210q128 140 228 352q8 12 -12 20q-108 50 -171 142t-63 176q0 98 44 172t112 114t138 60t138 20q54 0 137 -5t147 -3l238 4q8 -8 8 -34t-8 -26q-24 0 -78 -14t-60 -28q-14 -56 -14 -172v-756q0 -164 14 -188q10 -18 60 -30t78 -12q6 0 6 -26
q0 -30 -6 -36q-110 10 -242 10q-66 0 -260 -10q-4 12 -4 35t8 23q26 0 86 16t70 42q18 40 18 174v294q0 22 -12 28t-38 6q-52 0 -74 -8q-20 -10 -40 -26t-44 -48t-44 -61t-61 -87t-73 -104q-202 -288 -484 -288q-34 0 -56 6q-6 12 -6 30zM520 954q0 -116 74 -186t144 -70h52
q174 0 174 58v240q0 100 -3 147t-8 60t-15 15q-50 14 -140 14q-278 0 -278 -278z" />
    <glyph glyph-name="afii10065" unicode="&#x430;" horiz-adv-x="844" 
d="M78 182q0 44 22 83t52 64t82 51t89 39t97 33t82 28q20 8 20 32v150q0 64 -40 99t-96 35q-60 0 -100 -42t-40 -108q0 -68 -82 -68q-56 0 -78 38q0 86 127 171t255 85q110 0 157 -53t47 -173v-460q0 -42 23 -70t59 -28q30 0 72 28q6 0 6 -16q0 -28 -8 -42q-82 -70 -140 -70
q-46 0 -88 38t-58 80q-2 0 -15 -13t-35 -30t-51 -35t-68 -30t-79 -12q-92 0 -152 49t-60 147zM246 212q0 -54 34 -83t88 -29t104 33t50 67v206q-16 -8 -78 -28t-97 -35t-68 -50t-33 -81z" />
    <glyph glyph-name="afii10066" unicode="&#x431;" horiz-adv-x="970" 
d="M74 514q0 300 168 518q92 122 198 186q80 52 192 84q126 40 174 78q30 24 30 -6q0 -124 -106 -182q-72 -40 -228 -68q-136 -26 -200 -134q-54 -100 -60 -256l4 -2q122 140 278 140q158 -2 264 -120t106 -296q0 -220 -125 -345t-285 -125q-192 0 -301 145t-109 383z
M254 496q0 -200 69 -323t175 -123q92 0 153 81t61 265q0 180 -64 293t-168 113q-82 0 -162 -88q-64 -70 -64 -218z" />
    <glyph glyph-name="afii10067" unicode="&#x432;" horiz-adv-x="936" 
d="M60 27q0 25 8 25q26 0 73 13t51 27q14 58 14 140v388q0 82 -14 140q-4 14 -51 27t-73 13q-8 0 -8 25t8 33q210 -10 220 -10q70 0 122 1t88 1q110 0 201 -51t91 -161q0 -32 -12 -59t-28 -43t-40 -29t-40 -18t-38 -11l-20 -6q-10 -4 -10 -6q30 -4 66 -15t83 -35t78 -70
t31 -106q0 -110 -99 -176t-261 -64l-212 4q-10 0 -220 -10q-8 8 -8 33zM360 204q0 -90 28 -106q18 -18 70 -18q228 0 228 152q0 78 -56 132t-174 54q-70 0 -84 -6q-12 -8 -12 -40v-168zM360 514q0 -26 82 -26q34 0 68 6q50 4 84 33t34 77q0 168 -168 168q-60 0 -86 -12
q-6 -2 -8 -10q-6 -34 -6 -94v-142z" />
    <glyph glyph-name="afii10068" unicode="&#x433;" horiz-adv-x="806" 
d="M60 27q0 25 8 25q26 0 73 13t51 27q14 58 14 140v388q0 82 -14 140q-4 14 -51 27t-73 13q-8 0 -8 25t8 33q124 -12 220 -12q28 0 125 1t133 1l190 12q4 -62 18 -148t14 -94q0 -6 -22 -6q-42 0 -48 12q-2 6 -11 37t-18 51t-35 39t-66 19h-106q-94 0 -96 -8q-6 -36 -6 -104
v-388q0 -116 16 -178q4 -14 51 -27t67 -13q6 0 8 -24t-2 -34q-200 10 -212 10q-16 0 -220 -10q-8 8 -8 33z" />
    <glyph glyph-name="afii10069" unicode="&#x434;" horiz-adv-x="942" 
d="M50 34q0 18 14 32h62q16 0 24 22q60 116 98 287t38 341q0 16 -8 44q-4 14 -55 27t-77 13q-8 0 -8 25t8 33q82 -10 332 -10q28 0 91 1t91 1q56 0 220 8q8 -8 8 -33t-8 -25q-26 0 -73 -13t-51 -27q-14 -58 -14 -140v-444q0 -92 6 -98q6 -12 72 -12h28q18 -10 18 -18v-10
q-28 -116 -34 -212q0 -26 -2 -36q-4 -32 -4 -52q-16 -20 -50 -20q-8 0 -19 8t-13 18q2 16 2 52q0 88 -18 160q-18 44 -66 44h-404q-60 0 -86 -44q-42 -72 -42 -160q0 -36 2 -52q-2 -10 -13 -18t-19 -8q-34 0 -50 20v296zM256 86q0 -6 10 -6h312q10 0 10 10v664q0 14 -4 14
h-206q-4 0 -4 -14q0 -336 -114 -648q-4 -16 -4 -20z" />
    <glyph glyph-name="afii10070" unicode="&#x435;" horiz-adv-x="860" 
d="M74 418q0 210 113 332t283 122q92 0 162 -35t107 -90t54 -112t17 -113q0 -40 -12 -49t-46 -9h-504q-16 0 -16 -10q0 -126 76 -232t220 -106q42 0 80 8t65 19t46 22t33 21l14 10q12 0 12 -26q0 -16 -12 -36q-40 -56 -118 -101t-170 -45q-166 0 -285 125t-119 305zM236 562
q0 -14 12 -14h390q10 0 10 20q0 64 -54 147t-144 83q-104 0 -159 -89t-55 -147z" />
    <glyph glyph-name="afii10072" unicode="&#x436;" horiz-adv-x="1376" 
d="M30 22q0 30 10 30q50 0 100 38q32 32 76 108l58 94q48 78 56 88q50 68 130 98v6q-58 42 -116 128q-34 46 -50 65t-46 40t-62 21h-30q-72 0 -72 60q0 30 24 48t66 18q88 0 186 -138l30 -46q74 -112 102 -144q36 -34 57 -44t61 -12v140q0 82 -14 140q-4 14 -51 27t-73 13
q-8 0 -8 25t8 33q204 -10 220 -10q12 0 212 10q4 -10 2 -34t-8 -24q-20 0 -67 -13t-51 -27q-16 -62 -16 -178v-102q40 2 61 12t57 44q26 32 102 144l30 46q98 138 186 138q42 0 66 -18t24 -48q0 -60 -72 -60h-30q-32 0 -62 -20t-48 -41t-48 -65q-58 -86 -116 -128v-6
q80 -30 130 -98q8 -10 56 -88l58 -94q44 -76 76 -108q50 -38 100 -38q10 0 10 -30q0 -6 -10 -26q-4 0 -13 1t-15 1q-28 2 -96 2q-66 0 -113 21t-87 89l-116 222q-28 52 -52 69t-78 17v-148q0 -116 16 -178q4 -14 51 -27t67 -13q6 0 8 -24t-2 -34q-200 10 -212 10
q-16 0 -220 -10q-8 8 -8 33t8 25q26 0 73 13t51 27q14 58 14 140v186q-54 0 -78 -17t-52 -69l-116 -222q-40 -68 -87 -89t-113 -21q-68 0 -96 -2q-6 0 -15 -1t-13 -1q-10 20 -10 26z" />
    <glyph glyph-name="afii10073" unicode="&#x437;" horiz-adv-x="776" 
d="M54 150q0 32 26 56t54 24q54 0 72 -66q8 -32 20 -51t23 -25t29 -14q32 -16 78 -16q68 0 120 42t52 146q0 184 -224 184h-38q-10 10 -10 28q0 30 20 40q10 -2 36 -2q86 0 137 42t51 112t-37 110t-83 40q-146 0 -192 -176q-16 -16 -38 -16q-44 0 -44 26l20 190q28 6 79 22
t88 22t91 6q126 0 200 -58t74 -150q0 -54 -28 -94t-60 -59t-82 -41q212 -44 212 -220q0 -126 -107 -196t-243 -70q-118 0 -189 48t-103 102q-4 6 -4 14z" />
    <glyph glyph-name="afii10074" unicode="&#x438;" horiz-adv-x="1120" 
d="M68 25q0 25 8 25q26 0 73 13t51 27q14 58 14 140v390q0 82 -14 140q-4 14 -51 27t-73 13q-8 0 -8 25t8 33q204 -10 220 -10q12 0 212 10q4 -10 2 -34t-8 -24q-20 0 -67 -13t-51 -27q-16 -62 -16 -178v-344q0 -20 -2 -32l362 576q10 14 10 52q0 8 12 20q30 0 46 -2
q44 -4 80 -4q46 0 92 4t76 6q8 -8 8 -33t-8 -25q-26 0 -73 -13t-51 -27q-14 -58 -14 -140v-388q0 -82 14 -140q4 -14 51 -27t73 -13q8 0 8 -25t-8 -33q-204 10 -222 10q-12 0 -212 -10q-4 10 -2 34t8 24q20 0 69 13t53 27q20 78 14 178v358q0 20 -2 32l-364 -592
q-10 -16 -10 -52q0 -8 -12 -20q-30 0 -46 2q-44 4 -66 4q-46 0 -97 -4t-79 -6q-8 8 -8 33z" />
    <glyph glyph-name="afii10075" unicode="&#x439;" horiz-adv-x="1120" 
d="M68 25q0 25 8 25q26 0 73 13t51 27q14 58 14 140v390q0 82 -14 140q-4 14 -51 27t-73 13q-8 0 -8 25t8 33q204 -10 220 -10q12 0 212 10q4 -10 2 -34t-8 -24q-20 0 -67 -13t-51 -27q-16 -62 -16 -178v-344q0 -20 -2 -32l362 576q10 14 10 52q0 8 12 20q30 0 46 -2
q44 -4 80 -4q46 0 92 4t76 6q8 -8 8 -33t-8 -25q-26 0 -73 -13t-51 -27q-14 -58 -14 -140v-388q0 -82 14 -140q4 -14 51 -27t73 -13q8 0 8 -25t-8 -33q-204 10 -222 10q-12 0 -212 -10q-4 10 -2 34t8 24q20 0 69 13t53 27q20 78 14 178v358q0 20 -2 32l-364 -592
q-10 -16 -10 -52q0 -8 -12 -20q-30 0 -46 2q-44 4 -66 4q-46 0 -97 -4t-79 -6q-8 8 -8 33zM350 1186q0 38 22 66t54 28q38 0 54 -28t8 -60q-4 -10 -8 -38t22 -47t82 -19h2q54 0 80 21t20 47q0 6 -6 36q-10 32 8 60t54 28q34 0 56 -27t22 -67q0 -74 -65 -121t-171 -47
q-112 0 -173 46t-61 122z" />
    <glyph glyph-name="afii10076" unicode="&#x43a;" horiz-adv-x="1000" 
d="M70 27q0 25 8 25q26 0 73 13t51 27q14 58 14 140v388q0 82 -14 140q-4 14 -51 27t-73 13q-8 0 -8 25t8 33q206 -10 220 -10q12 0 212 10q4 -10 2 -34t-8 -24q-20 0 -67 -13t-51 -27q-16 -62 -16 -178v-102q82 4 138 56q28 32 102 144l30 46q98 138 186 138q42 0 66 -18
t24 -48q0 -60 -72 -60h-30q-32 0 -62 -21t-46 -40t-50 -65q-58 -86 -116 -128v-6q80 -30 130 -98q8 -10 56 -88l58 -94q44 -76 76 -108q50 -38 100 -38q10 0 10 -30q0 -6 -10 -26q-4 0 -13 1t-15 1q-28 2 -96 2q-66 0 -113 21t-87 89l-116 222q-26 48 -59 67t-91 19v-148
q0 -116 16 -178q4 -14 51 -27t67 -13q6 0 8 -24t-2 -34q-200 10 -212 10q-14 0 -220 -10q-8 8 -8 33z" />
    <glyph glyph-name="afii10077" unicode="&#x43b;" horiz-adv-x="960" 
d="M34 -2v32q86 52 140 142q118 206 118 556q0 22 -6 32q-8 16 -53 28t-67 12q-6 0 -8 24t2 34q250 -10 342 -10q142 0 392 10q4 -10 2 -34t-8 -24q-20 0 -68 -13t-52 -27q-16 -62 -16 -178v-312q0 -116 16 -178q4 -14 52 -27t68 -13q6 0 8 -24t-2 -34q-200 10 -214 10
q-12 0 -218 -10q-8 8 -8 33t8 25q24 0 71 13t51 27q14 58 14 140v508q0 18 -6 23t-30 5h-130q-24 0 -30 -5t-6 -23q0 -524 -132 -692q-54 -68 -110 -68q-84 0 -120 18z" />
    <glyph glyph-name="afii10078" unicode="&#x43c;" horiz-adv-x="1320" 
d="M52 27q0 25 8 25q26 0 73 13t51 27q16 60 22 140l28 498q2 18 -10 50q-8 20 -106 20q-10 0 -10 30q0 20 8 28q6 0 19 -1t19 -1q84 -8 122 -8q54 0 120 6q2 0 11 1t13 1q12 -38 98 -226l166 -374q124 300 190 478l38 122q48 -8 124 -8q26 0 64 4t48 4q4 0 16 1t18 1
q8 -24 8 -28q0 -30 -8 -30q-56 0 -96 -30q-10 -4 -8 -40l14 -230q4 -62 10 -150t8 -118q6 -80 22 -140q4 -14 51 -27t73 -13q8 0 8 -25t-8 -33q-204 10 -226 10q-6 0 -206 -10q-4 10 -2 34t8 24q20 0 69 13t53 27q10 40 6 178l-22 402l-260 -636q-4 -12 -19 -26t-31 -14
q-8 0 -16 4l-298 676q-4 -72 -14 -213t-12 -193q-8 -126 6 -178q4 -14 53 -27t69 -13q6 0 8 -24t-2 -34q-30 2 -64 4t-61 4t-61 2q-46 0 -96 -4t-78 -6q-8 8 -8 33z" />
    <glyph glyph-name="afii10079" unicode="&#x43d;" horiz-adv-x="1122" 
d="M66 27q0 25 8 25q26 0 73 13t51 27q14 58 14 140v388q0 82 -14 140q-4 14 -51 27t-73 13q-8 0 -8 25t8 33q206 -10 220 -10q12 0 212 10q4 -10 2 -34t-8 -24q-20 0 -67 -13t-51 -27q-16 -62 -16 -178v-90q0 -8 6 -8q116 -4 186 -4t186 4q6 0 6 8v90q0 116 -16 178
q-4 14 -51 27t-67 13q-6 0 -8 24t2 34q200 -10 212 -10q14 0 220 10q8 -8 8 -33t-8 -25q-26 0 -73 -13t-51 -27q-14 -58 -14 -140v-388q0 -82 14 -140q4 -14 51 -27t73 -13q8 0 8 -25t-8 -33q-206 10 -222 10q-12 0 -212 -10q-4 10 -2 34t8 24q20 0 69 13t53 27
q20 74 16 178l-2 118q0 8 -6 8q-116 4 -186 4q-174 0 -186 -2q-6 0 -6 -8v-120q0 -116 16 -178q4 -14 51 -27t67 -13q6 0 8 -24t-2 -34q-200 10 -212 10q-14 0 -220 -10q-8 8 -8 33z" />
    <glyph glyph-name="afii10080" unicode="&#x43e;" horiz-adv-x="1020" 
d="M74 432q0 186 124 314t310 128q180 0 308 -130t128 -312q0 -184 -125 -315t-307 -131t-310 131t-128 315zM246 462q0 -164 85 -281t199 -117q106 0 174 100t68 240q0 162 -86 277t-200 115q-106 0 -173 -97t-67 -237z" />
    <glyph glyph-name="afii10081" unicode="&#x43f;" horiz-adv-x="1064" 
d="M64 24q0 28 10 28q20 0 59 11t45 23q10 18 10 86v492q0 74 -10 100q-4 14 -45 25t-59 11q-10 0 -10 28l10 30q362 -10 460 -10q398 0 460 10q8 -24 8 -30q0 -28 -8 -28q-18 0 -58 -11t-46 -25q-10 -26 -10 -100v-492q0 -64 10 -86q6 -12 44 -23t60 -11q8 0 8 -28
q0 -22 -8 -30q-10 2 -28 4t-68 6t-94 2h-54h-54t-46 -1t-32 -2t-12 -3q-4 8 -4 24q0 28 10 28q18 0 58 12t48 24v-2q8 16 8 84v580q0 8 -6 8q-116 4 -186 4q-174 0 -186 -2q-6 0 -6 -8v-580q0 -64 10 -86q6 -12 47 -23t61 -11q4 -16 4 -28q0 -14 -4 -30q-10 2 -29 4t-71 5
t-96 3q-44 2 -91 -1t-73 -7l-26 -4q-10 10 -10 30z" />
    <glyph glyph-name="afii10082" unicode="&#x440;" horiz-adv-x="1022" 
d="M34 -418q0 26 8 26q26 0 72 12t50 26q14 60 14 142v824q0 78 -28 108q-20 24 -49 33t-48 9t-19 4q0 46 12 48q198 30 276 54q2 0 6 1l4 1q6 0 6 -12t-2 -28t-2 -18v-10q30 20 94 45t110 25q192 0 300 -129t108 -275q0 -192 -134 -338t-304 -146q-82 0 -168 38
q-8 -10 -8 -26v-172q0 -114 16 -178q4 -14 52 -26t68 -12q6 0 8 -26t-2 -34q-200 10 -214 10q-12 0 -218 -10q-8 8 -8 34zM332 196q0 -54 58 -91t126 -37q118 0 188 106t70 238q0 168 -90 265t-210 97q-62 0 -102 -34t-40 -96v-448z" />
    <glyph glyph-name="afii10083" unicode="&#x441;" horiz-adv-x="810" 
d="M74 418q0 184 100 319t288 135q220 0 304 -102q0 -134 -74 -134q-34 0 -52 15t-46 55q-62 92 -148 92q-82 0 -149 -78t-67 -232q0 -160 79 -266t219 -106q42 0 80 8t65 19t46 22t33 21l14 10q12 0 12 -26q0 -16 -12 -36q-40 -56 -118 -101t-170 -45q-166 0 -285 125
t-119 305z" />
    <glyph glyph-name="afii10084" unicode="&#x442;" horiz-adv-x="964" 
d="M44 616q0 8 14 94t18 148q118 -10 190 -10h424l184 10q4 -62 21 -149t17 -93t-22 -6q-42 0 -48 12q-2 6 -10 37t-17 52t-38 41t-73 20q-134 0 -138 -18q-12 -34 -12 -122v-362q0 -116 16 -178q4 -14 52 -27t68 -13q6 0 8 -24t-2 -34q-200 10 -214 10t-218 -10q-8 8 -8 33
t8 25q24 0 71 13t51 27q14 58 14 140v396q0 106 -14 124q-12 20 -134 20q-44 0 -73 -20t-38 -41t-17 -52t-10 -37q-6 -12 -48 -12q-22 0 -22 6z" />
    <glyph glyph-name="afii10085" unicode="&#x443;" horiz-adv-x="922" 
d="M-6 826q0 24 8 32q206 -10 216 -10q34 0 63 2t66 4t65 4q4 -12 4 -30q0 -28 -8 -28q-16 0 -53 -14t-41 -28v-4q0 -30 214 -512l152 428q14 42 14 60q0 32 -31 51t-83 19q-8 0 -8 26q0 24 8 32q26 -2 79 -6t99 -4q44 0 96 4l78 6q4 -12 4 -30q0 -28 -8 -28q-26 0 -71 -19
t-61 -59l-356 -954q-48 -124 -105 -173t-105 -49q-42 0 -62 26t-20 52q0 44 28 64q166 0 220 172l24 72t22 68l-286 690q-20 50 -40 68q-18 18 -55 30t-59 12q-8 0 -8 26z" />
    <glyph glyph-name="afii10086" unicode="&#x444;" horiz-adv-x="1266" 
d="M74 430q0 192 102 318t258 126q76 0 128 -44v268q0 68 -12 128q-10 30 -102 30h-20q-12 0 -12 24q0 32 12 32q62 6 113 15t80 19t49 20t30 16l8 6h4q20 0 26 -34q-22 -62 -22 -172v-356q80 48 156 48q132 0 227 -120t95 -296q0 -206 -105 -339t-243 -133q-58 0 -128 38
v-200q0 -114 16 -178q4 -14 52 -26t68 -12q6 0 8 -26t-2 -34q-200 10 -214 10t-218 -10q-8 8 -8 34t8 26q26 0 72 12t50 26q14 60 14 142v240q-66 -42 -148 -42q-142 0 -242 126t-100 318zM246 460q0 -208 65 -304t137 -96q74 0 116 62v610q-48 68 -122 68q-90 0 -143 -97
t-53 -243zM716 122q50 -62 122 -62q26 0 55 16t60 53t50 113t19 180q0 170 -47 274t-145 104q-52 0 -114 -66v-612z" />
    <glyph glyph-name="afii10087" unicode="&#x445;" horiz-adv-x="932" 
d="M8 22q0 30 8 30q134 22 180 84l208 276q0 2 1 6t1 6q0 4 -4 12l-206 292q-20 26 -75 49t-89 23l-6 30q4 20 8 28q194 -10 200 -10q4 0 210 10q2 -8 2 -24q0 -34 -6 -34q-80 0 -80 -34q0 -8 10 -24l130 -202q14 22 42 63t45 66t31 53t14 42q0 16 -23 24t-52 9t-33 3
q-8 0 -8 32q0 18 8 26q200 -10 210 -10q2 0 182 10q4 -20 4 -28q0 -30 -6 -30q-54 -6 -104 -26t-70 -44l-192 -240q-4 -6 -4 -16q0 -8 6 -20l212 -314q56 -80 168 -88q6 0 6 -28q0 -18 -6 -30q-26 2 -62 4t-65 4t-61 2q-12 0 -222 -10q-6 14 -6 26q0 32 8 32q82 6 82 36
q0 4 -4 12l-150 238l-138 -204q-14 -22 -14 -38q0 -36 100 -44h10q6 0 6 -30q0 -20 -8 -28q-194 10 -200 10q-4 0 -194 -10q-4 16 -4 28z" />
    <glyph glyph-name="afii10088" unicode="&#x446;" horiz-adv-x="1062" 
d="M60 24q0 28 10 28q18 0 59 11t45 25q10 26 10 100v492q0 68 -10 86q-6 12 -45 23t-59 11q-10 0 -10 28q0 20 10 30q10 -2 28 -4t68 -5t94 -1q44 0 93 2t75 6l28 2q4 -16 4 -30l-4 -28q-20 0 -61 -11t-47 -23q-10 -22 -10 -86v-580q0 -8 6 -8q12 -2 186 -2q70 0 186 4
q6 0 6 8v578q0 64 -10 86q-6 12 -47 23t-61 11q-4 16 -4 28q0 14 4 30q10 -2 29 -4t71 -4t96 -2q44 -2 91 1t73 7l26 2q10 -10 10 -30q0 -28 -10 -28q-20 0 -59 -11t-45 -23q-10 -18 -10 -86v-504q0 -92 6 -98q6 -12 70 -12h28q18 -10 18 -18v-10q-40 -160 -38 -300
q-16 -20 -50 -20q-8 0 -20 8t-14 18q2 16 2 52q0 92 -18 164q-18 44 -66 44q-10 0 -50 1t-70 1q-54 2 -144 2t-140 -2q-26 0 -68 -1t-56 -1l-196 -10q0 2 -3 9t-5 13t-2 8z" />
    <glyph glyph-name="afii10089" unicode="&#x447;" horiz-adv-x="1042" 
d="M32 825q0 25 8 33q206 -10 220 -10q12 0 212 10q4 -10 2 -34t-8 -24q-20 0 -67 -13t-51 -27q-16 -62 -16 -178v-20q0 -82 51 -122t133 -40q80 0 158 22v160q0 116 -16 178q-4 14 -51 27t-67 13q-6 0 -8 24t2 34q200 -10 212 -10q14 0 220 10q8 -8 8 -33t-8 -25
q-26 0 -73 -13t-51 -27q-14 -58 -14 -140v-388q0 -82 14 -140q4 -14 51 -27t73 -13q8 0 8 -25t-8 -33q-206 10 -222 10q-12 0 -212 -10q-4 10 -2 34t8 24q20 0 69 13t53 27q16 62 16 178v76q-96 -30 -198 -30q-120 0 -210 49t-90 149v106q0 82 -14 140q-4 14 -51 27t-73 13
q-8 0 -8 25z" />
    <glyph glyph-name="afii10090" unicode="&#x448;" horiz-adv-x="1462" 
d="M66 24q0 28 10 28q18 0 59 11t45 25q10 26 10 100v492q0 68 -10 86q-6 12 -45 23t-59 11q-10 0 -10 28q0 20 10 30q10 -2 28 -4t68 -5t94 -1q44 0 93 2t77 6l26 2q4 -16 4 -30l-4 -28q-20 0 -61 -11t-47 -23q-10 -22 -10 -86v-580q0 -8 6 -8q22 -8 152 -4q22 0 72 3t76 3
q6 0 6 8v578q0 64 -10 86q-6 12 -47 23t-61 11q-4 16 -4 28q0 14 4 30q10 -2 29 -4t70 -5t95 -3t93 3t75 7l28 2q4 -16 4 -30l-4 -28q-20 0 -61 -11t-47 -23q-10 -22 -10 -86v-580q0 -8 6 -8q22 0 75 -2t79 -2q64 0 142 6q6 0 6 8v578q0 64 -10 86q-6 12 -47 23t-61 11
q-4 16 -4 28q0 14 4 30q10 -2 29 -4t71 -4t96 -2q44 -2 91 1t73 7l26 2q10 -10 10 -30q0 -28 -10 -28q-20 0 -59 -11t-45 -23q-10 -18 -10 -86v-492q0 -74 10 -100q4 -14 45 -25t59 -11q10 0 10 -28l-10 -30q-98 10 -196 10q-10 0 -50 1t-70 1q-54 2 -534 2q-90 0 -140 -2
q-24 0 -68 -1t-56 -1l-196 -10q0 2 -3 9t-5 13t-2 8z" />
    <glyph glyph-name="afii10091" unicode="&#x449;" horiz-adv-x="1454" 
d="M64 24q0 28 10 28q18 0 59 11t45 25q10 26 10 100v492q0 68 -10 86q-6 12 -45 23t-59 11q-10 0 -10 28q0 20 10 30q10 -2 28 -4t68 -5t94 -1q44 0 93 2t75 6l28 2q4 -16 4 -30l-4 -28q-20 0 -61 -11t-47 -23q-10 -22 -10 -86v-580q0 -8 6 -8q22 -8 152 -4q22 0 72 3t76 3
q6 0 6 8v578q0 64 -10 86q-6 12 -47 23t-61 11q-4 16 -4 28q0 14 4 30q10 -2 29 -4t70 -4t95 -2t93 2t77 6l26 2q4 -16 4 -30l-4 -28q-20 0 -61 -11t-47 -23q-10 -22 -10 -86v-580q0 -8 6 -8q22 0 75 -2t79 -2q64 0 142 6q6 0 6 8v578q0 64 -10 86q-6 12 -47 23t-61 11
q-4 16 -4 28q0 14 4 30q10 -2 29 -4t71 -4t96 -2q44 -2 91 1t73 7l26 2q10 -10 10 -30q0 -28 -10 -28q-20 0 -59 -11t-45 -23q-10 -18 -10 -86v-504q0 -92 6 -98q6 -12 70 -12h28q18 -10 18 -18v-10q-40 -160 -38 -300q-16 -20 -50 -20q-8 0 -20 8t-14 18q2 16 2 52
q0 92 -18 164q-18 44 -66 44q-12 0 -52 1t-68 1q-54 2 -534 2q-90 0 -140 -2q-26 0 -68 -1t-56 -1l-196 -10q0 2 -3 9t-5 13t-2 8z" />
    <glyph glyph-name="afii10092" unicode="&#x44a;" horiz-adv-x="1074" 
d="M40 618q0 8 14 94t18 148q118 -12 190 -12q18 0 66 -1t74 -1q96 0 260 8q8 -8 8 -33t-8 -25q-26 0 -73 -13t-51 -27q-14 -58 -14 -140v-100q0 -24 78 -24q198 0 301 -64t103 -168q0 -122 -98 -191t-266 -69h-190q-92 0 -216 -6q-8 8 -8 33t8 25q26 0 73 13t51 27
q14 58 14 140v384q0 82 -14 140q-4 10 -28 14h-92q-40 0 -66 -19t-35 -39t-18 -51t-11 -37q-6 -12 -48 -12q-22 0 -22 6zM524 188q0 -84 18 -94q18 -16 68 -16q234 0 234 174q0 74 -54 120t-172 46q-70 0 -84 -8q-10 -6 -10 -36v-186z" />
    <glyph glyph-name="afii10093" unicode="&#x44b;" horiz-adv-x="1358" 
d="M66 27q0 25 8 25q26 0 73 13t51 27q14 58 14 140v388q0 82 -14 140q-4 14 -51 27t-73 13q-8 0 -8 25t8 33q206 -10 214 -10t212 10q8 -8 8 -33t-8 -25q-26 0 -73 -13t-51 -27q-14 -58 -14 -140v-104q0 -24 78 -24q198 0 301 -64t103 -168q0 -122 -98 -191t-266 -69h-190
q-94 0 -216 -6q-8 8 -8 33zM362 188q-6 -80 18 -94q18 -16 68 -16q234 0 234 174q0 74 -54 120t-172 46q-70 0 -84 -8q-10 -6 -10 -36v-186zM844 27q0 25 8 25q26 0 73 13t51 27q14 58 14 140v388q0 82 -14 140q-4 14 -51 27t-73 13q-8 0 -8 25t8 33q204 -10 220 -10
q12 0 212 10q4 -10 2 -34t-8 -24q-20 0 -67 -13t-51 -27q-16 -62 -16 -178v-312q0 -116 16 -178q4 -14 51 -27t67 -13q6 0 8 -24t-2 -34q-200 10 -212 10q-16 0 -220 -10q-8 8 -8 33z" />
    <glyph glyph-name="afii10094" unicode="&#x44c;" horiz-adv-x="906" 
d="M64 27q0 25 8 25q26 0 73 13t51 27q14 58 14 140v388q0 82 -14 140q-4 14 -51 27t-73 13q-8 0 -8 25t8 33q204 -10 214 -10q6 0 212 10q8 -8 8 -33t-8 -25q-26 0 -73 -13t-51 -27q-14 -58 -14 -140v-104q0 -24 78 -24q198 0 301 -64t103 -168q0 -122 -98 -191t-266 -69
h-190q-92 0 -216 -6q-8 8 -8 33zM360 188q-6 -80 18 -94q18 -16 68 -16q234 0 234 174q0 74 -54 120t-172 46q-70 0 -84 -8q-10 -6 -10 -36v-186z" />
    <glyph glyph-name="afii10095" unicode="&#x44d;" horiz-adv-x="938" 
d="M38 238l12 8q28 12 52 12q22 0 32 -34q28 -74 46 -92q70 -70 186 -70q144 0 230 101t98 247l-520 -10v94l514 -14q-12 128 -95 225t-195 97q-70 0 -122 -19t-76 -51t-35 -53t-15 -43q-10 -14 -36 -14q-48 0 -48 26l-2 192q164 34 338 34q196 0 329 -134t133 -320
q0 -176 -130 -305t-318 -129q-226 0 -322 58q-10 6 -33 93t-23 101z" />
    <glyph glyph-name="afii10096" unicode="&#x44e;" horiz-adv-x="1490" 
d="M62 27q0 25 8 25q26 0 73 13t51 27q14 58 14 140v388q0 82 -14 140q-4 14 -51 27t-73 13q-8 0 -8 25t8 33q206 -10 220 -10q12 0 212 10q4 -10 2 -34t-8 -24q-20 0 -67 -13t-51 -27q-16 -62 -16 -178v-80h188q24 162 144 267t286 105q180 0 308 -130t128 -312
q0 -184 -126 -315t-306 -131t-307 128t-131 308h-184v-152q0 -116 16 -178q4 -14 51 -27t67 -13q6 0 8 -24t-2 -34q-200 10 -212 10q-14 0 -220 -10q-8 8 -8 33zM718 462q0 -164 85 -281t199 -117q106 0 174 100t68 240q0 162 -86 277t-200 115q-106 0 -173 -98t-67 -236z
" />
    <glyph glyph-name="afii10097" unicode="&#x44f;" horiz-adv-x="984" 
d="M18 22q0 14 4 26q74 0 228 184q52 72 112 182q-2 -2 -26 4q-94 28 -135 84t-41 118q0 80 56 136t123 76t135 20q54 0 110 -4q60 -4 104 -4q46 0 115 6t99 8q8 -8 8 -33t-8 -25q-26 0 -73 -13t-51 -27q-14 -58 -14 -140v-388q0 -82 14 -140q4 -14 51 -27t73 -13q8 0 8 -25
t-8 -33q-206 10 -222 10q-12 0 -212 -10q-4 10 -2 34t8 24q20 0 69 13t53 27q16 62 16 178v88q0 20 -32 20q-30 0 -42 -4q-26 -10 -84 -98q-72 -104 -82 -118q-64 -82 -132 -125t-178 -43q-26 0 -40 6q-4 10 -4 26zM332 608q0 -68 46 -110t90 -42h34q110 0 110 34v146
q0 88 -8 118l-12 10h2q-18 4 -86 4q-176 0 -176 -160z" />
    <glyph glyph-name="uni0450" unicode="&#x450;" horiz-adv-x="860" 
d="M74 418q0 210 113 332t283 122q92 0 162 -35t107 -90t54 -112t17 -113q0 -40 -12 -49t-48 -9h-502q-16 0 -16 -10q0 -126 76 -232t220 -106q42 0 80 8t64 19t45 22t33 21l14 10q2 0 5 -3t6 -9t3 -14q0 -18 -14 -36q-38 -56 -115 -101t-171 -45q-166 0 -285 125t-119 305z
M210 1264q0 8 5 18t25 21t52 11q50 0 68 -18q34 -40 80 -106t76 -115t30 -55q0 -10 -7 -19t-17 -9q-26 0 -169 111t-143 161zM236 560q0 -12 12 -12h390q10 0 10 18q0 64 -55 148t-143 84q-104 0 -159 -89t-55 -149z" />
    <glyph glyph-name="afii10071" unicode="&#x451;" horiz-adv-x="860" 
d="M74 418q0 210 113 332t283 122q92 0 162 -35t107 -90t54 -112t17 -113q0 -40 -12 -49t-48 -9h-502q-16 0 -16 -10q0 -126 76 -232t220 -106q42 0 80 8t64 19t45 22t33 21l14 10q2 0 5 -3t6 -9t3 -14q0 -18 -14 -36q-38 -56 -115 -101t-171 -45q-166 0 -285 125t-119 305z
M172 1090q0 42 30 71t72 29q40 0 69 -30t29 -72q0 -38 -30 -67t-70 -29t-70 29t-30 69zM236 560q0 -12 12 -12h390q10 0 10 18q0 64 -55 148t-143 84q-104 0 -159 -89t-55 -149zM538 1090q0 42 30 71t72 29q40 0 69 -30t29 -72q0 -38 -30 -67t-70 -29q-42 0 -71 29t-29 69z
" />
    <glyph glyph-name="afii10099" unicode="&#x452;" horiz-adv-x="1008" 
d="M38 27q0 25 8 25q24 0 71 13t51 27q14 58 14 138v784h-134q-10 0 -10 14q8 66 22 66h122v4q0 68 -12 128q-10 30 -102 30h-18q-12 0 -12 24q0 32 12 32q60 6 111 15t80 19t49 20t30 16l8 6h4q20 0 26 -34q-22 -62 -22 -172v-88h298q6 0 6 -8t-14 -64l-8 -8h-282v-236
l126 62q64 32 120 32q162 0 255 -137t93 -351q0 -492 -512 -792q-14 8 -24 30q-2 8 -3 19t1 11q184 130 273 296t89 408q0 210 -73 309t-181 99q-94 0 -164 -52v-442q0 -116 16 -178q4 -14 52 -27t68 -13q6 0 8 -24t-2 -34q-200 10 -214 10q-12 0 -218 -10q-8 8 -8 33z" />
    <glyph glyph-name="afii10100" unicode="&#x453;" horiz-adv-x="806" 
d="M60 27q0 25 8 25q26 0 73 13t51 27q14 58 14 140v386q0 82 -14 140q-4 14 -51 27t-73 13q-8 0 -8 25t8 33q204 -10 220 -10q188 0 258 2l190 12q4 -62 18 -148t14 -94q0 -6 -22 -6q-42 0 -48 12q-2 6 -11 37t-18 51t-35 39t-66 19h-106q-94 0 -96 -8q-6 -36 -6 -104v-388
q0 -116 16 -178q4 -14 51 -27t67 -13q6 0 8 -24t-2 -34q-200 10 -212 10q-16 0 -220 -10q-8 8 -8 33zM298 1020q0 6 31 57t76 116t79 103q18 18 68 18q30 0 50 -11t25 -21t5 -18q0 -50 -143 -161t-167 -111q-10 0 -17 9t-7 19z" />
    <glyph glyph-name="afii10101" unicode="&#x454;" horiz-adv-x="944" 
d="M76 420q0 186 133 320t329 134q174 0 338 -34q-2 -178 -2 -192q0 -26 -48 -26q-26 0 -36 14q-4 22 -15 43t-35 53t-76 51t-122 19q-112 0 -195 -97t-95 -225l514 14v-94l-520 10q12 -146 98 -247t230 -101q116 0 186 70q18 18 46 92q10 34 32 34l52 -12l12 -8
q0 -14 -23 -101t-33 -93q-96 -58 -322 -58q-188 0 -318 129t-130 305z" />
    <glyph glyph-name="afii10102" unicode="&#x455;" horiz-adv-x="718" 
d="M82 224q16 12 24 12q30 0 32 -12q10 -60 74 -117t138 -57q64 0 104 35t40 101q0 34 -13 63t-42 53t-53 38t-70 39t-68 37q-156 90 -156 214q0 108 87 176t203 68q44 0 109 -11t93 -15q22 -88 26 -206q0 -8 -28 -8q-26 0 -28 12q-10 58 -57 108t-107 50q-144 0 -144 -118
q0 -30 8 -53t31 -44t35 -30t53 -32t51 -29q8 -4 47 -27t55 -33t47 -34t45 -43t27 -48t13 -59q0 -118 -92 -197t-216 -79q-42 0 -77 5t-83 17t-74 16q-12 32 -23 100t-11 108z" />
    <glyph glyph-name="afii10103" unicode="&#x456;" horiz-adv-x="540" 
d="M64 27q0 25 8 25q24 0 71 13t51 27q14 58 14 140v378q0 78 -28 108q-20 24 -49 33t-48 9t-19 4q0 46 12 48q198 30 276 54l4 2h6q8 0 10 -18t0 -26q-10 -78 -10 -142v-412q0 -116 16 -178q4 -14 52 -27t68 -13q6 0 8 -24t-2 -34q-200 10 -214 10t-218 -10q-8 8 -8 33z
M170 1186q0 40 29 70t71 30t71 -30t29 -70q0 -42 -29 -72t-71 -30t-71 30t-29 72z" />
    <glyph glyph-name="afii10104" unicode="&#x457;" horiz-adv-x="526" 
d="M4 1090q0 42 30 71t72 29q40 0 69 -30t29 -72q0 -38 -30 -67t-70 -29t-70 29t-30 69zM72 27q0 25 8 25q24 0 71 13t51 27q14 58 14 140v378q0 78 -28 108q-20 24 -49 33t-48 9t-19 4q0 46 12 48q198 30 276 54l4 2h6q8 0 10 -18t0 -26q-10 -78 -10 -142v-412
q0 -116 16 -178q4 -14 52 -27t68 -13q6 0 8 -24t-2 -34q-200 10 -214 10t-218 -10q-8 8 -8 33zM324 1090q0 42 30 71t72 29q40 0 68 -30t28 -72q0 -40 -29 -68t-69 -28t-70 29t-30 69z" />
    <glyph glyph-name="afii10105" unicode="&#x458;" horiz-adv-x="476" 
d="M-50 -418l24 12q24 12 55 42t63 80t54 148t22 226v520q0 78 -28 108q-20 24 -49 33t-48 9t-19 4q0 46 12 48q198 30 276 54l4 2h6q8 0 10 -18t0 -26q-10 -78 -10 -142v-546q0 -252 -78 -376q-50 -78 -127 -138t-141 -84q-18 12 -26 30q-4 10 0 14zM114 1186q0 40 30 70
t72 30t71 -30t29 -70q0 -42 -29 -72t-71 -30t-72 30t-30 72z" />
    <glyph glyph-name="afii10106" unicode="&#x459;" horiz-adv-x="1290" 
d="M24 -2v32q86 52 140 142q118 206 118 556q0 22 -6 32q-8 16 -54 28t-66 12q-6 0 -8 24t2 34q200 -10 336 -10q270 0 394 6q8 -8 8 -33t-8 -25q-26 0 -73 -13t-51 -27q-14 -58 -14 -140v-100q0 -24 78 -24q198 0 301 -64t103 -168q0 -124 -99 -194t-265 -66l-190 4
q-8 0 -218 -10q-8 8 -8 33t8 25q24 0 71 13t51 27q14 58 14 140v508q0 18 -6 23t-30 5h-130q-24 0 -30 -5t-6 -23q0 -524 -132 -692q-54 -68 -110 -68q-84 0 -120 18zM742 188q-6 -80 18 -94q18 -16 68 -16q234 0 234 174q0 74 -54 120t-172 46q-70 0 -84 -8q-10 -6 -10 -36
v-186z" />
    <glyph glyph-name="afii10107" unicode="&#x45a;" horiz-adv-x="1458" 
d="M68 27q0 25 8 25q26 0 73 13t51 27q14 58 14 140v388q0 82 -14 140q-4 14 -51 27t-73 13q-8 0 -8 25t8 33q204 -10 220 -10q12 0 212 10q4 -10 2 -34t-8 -24q-20 0 -67 -13t-51 -27q-16 -62 -16 -178v-90q0 -8 6 -8q116 -4 186 -4t186 4q6 0 6 8v90q0 116 -16 178
q-4 14 -51 27t-67 13q-6 0 -8 24t2 34q200 -10 216 -10q92 0 216 6q8 -8 8 -33t-8 -25q-26 0 -73 -13t-51 -27q-14 -58 -14 -140v-100q0 -24 78 -24q198 0 301 -64t103 -168q0 -122 -98 -191t-266 -69l-184 4q-30 0 -230 -10q-4 10 -2 34t8 24q20 0 69 13t53 27
q20 74 16 178l-2 118q0 8 -6 8q-116 4 -186 4q-174 0 -186 -2q-6 0 -6 -8v-120q0 -116 16 -178q4 -14 51 -27t67 -13q6 0 8 -24t-2 -34q-200 10 -212 10q-16 0 -220 -10q-8 8 -8 33zM906 158q0 -28 4 -43t14 -21q18 -16 68 -16q234 0 234 174q0 74 -54 120t-172 46
q-70 0 -84 -8q-10 -6 -10 -36v-186v-30z" />
    <glyph glyph-name="afii10108" unicode="&#x45b;" horiz-adv-x="1062" 
d="M36 27q0 25 8 25q24 0 71 13t51 27q14 58 14 138v784h-134q-10 0 -10 14q8 66 22 66h122v4q0 68 -12 128q-10 30 -102 30h-18q-12 0 -12 24q0 32 12 32q60 6 111 15t80 19t49 20t28 16l10 6h4q20 0 26 -34q-22 -62 -22 -172v-88h298q6 0 6 -8t-14 -64l-8 -8h-282v-272
q0 -8 4 -8q2 0 6 4q42 48 124 93t154 45q134 0 193 -96t59 -296v-216q0 -122 14 -176q4 -14 53 -27t69 -13q6 0 8 -24t-2 -34q-200 10 -216 10q-4 0 -208 -10q-8 8 -8 33t8 25q24 0 67 13t45 27q14 58 14 140v212q0 184 -50 247t-156 63q-60 0 -119 -47t-59 -83v-354
q0 -116 16 -178q4 -14 52 -27t68 -13q6 0 8 -24t-2 -34q-200 10 -214 10q-12 0 -218 -10q-8 8 -8 33z" />
    <glyph glyph-name="afii10109" unicode="&#x45c;" horiz-adv-x="1000" 
d="M70 27q0 25 8 25q26 0 73 13t51 27q14 58 14 140v388q0 82 -14 140q-4 14 -51 27t-73 13q-8 0 -8 25t8 33q206 -10 220 -10q12 0 212 10q4 -10 2 -34t-8 -24q-20 0 -67 -13t-51 -27q-16 -62 -16 -178v-102q82 4 138 56q28 32 102 144l30 46q98 138 186 138q42 0 66 -18
t24 -48q0 -60 -72 -60h-30q-32 0 -62 -21t-46 -40t-50 -65q-58 -86 -116 -128v-6q80 -30 130 -98q8 -10 56 -88l58 -94q44 -76 76 -108q50 -38 100 -38q10 0 10 -30q0 -6 -10 -26q-4 0 -13 1t-15 1q-28 2 -96 2q-66 0 -113 21t-87 89l-116 222q-26 48 -59 67t-91 19v-148
q0 -116 16 -178q4 -14 51 -27t67 -13q6 0 8 -24t-2 -34q-200 10 -212 10q-14 0 -220 -10q-8 8 -8 33zM398 1020q0 6 31 57t76 116t79 103q18 18 68 18q30 0 50 -11t25 -21t5 -18q0 -50 -143 -161t-167 -111q-10 0 -17 9t-7 19z" />
    <glyph glyph-name="uni045D" unicode="&#x45d;" horiz-adv-x="1120" 
d="M68 25q0 25 8 25q26 0 73 13t51 27q14 58 14 140v390q0 82 -14 140q-4 14 -51 27t-73 13q-8 0 -8 25t8 33q204 -10 220 -10q12 0 212 10q4 -10 2 -34t-8 -24q-20 0 -67 -13t-51 -27q-16 -62 -16 -178v-344q0 -20 -2 -32l362 576q10 14 10 52q0 8 12 20q30 0 46 -2
q44 -4 66 -4q36 0 62 2t58 4t62 4q8 -8 8 -33t-8 -25q-26 0 -73 -13t-51 -27q-14 -58 -14 -140v-388q0 -82 14 -140q4 -14 51 -27t73 -13q8 0 8 -25t-8 -33q-204 10 -222 10q-12 0 -212 -10q-4 10 -2 34t8 24q20 0 69 13t53 27q20 78 14 178v358q0 20 -2 32l-364 -592
q-10 -16 -10 -52q0 -8 -12 -20q-30 0 -46 2q-44 4 -66 4q-46 0 -97 -4t-79 -6q-8 8 -8 33zM306 1264q0 8 5 18t25 21t52 11q50 0 68 -18q34 -40 80 -106t76 -115t30 -55q0 -10 -7 -19t-17 -9q-26 0 -169 111t-143 161z" />
    <glyph glyph-name="afii10110" unicode="&#x45e;" horiz-adv-x="922" 
d="M-6 826q0 24 8 32q206 -10 216 -10q34 0 63 2t66 4t65 4q4 -12 4 -30q0 -28 -8 -28q-16 0 -53 -14t-41 -28v-4q0 -30 214 -512l152 428q14 42 14 60q0 32 -31 51t-83 19q-8 0 -8 26q0 24 8 32q26 -2 79 -6t99 -4q44 0 96 4l78 6q4 -12 4 -30q0 -28 -8 -28q-26 0 -71 -19
t-61 -59l-356 -954q-48 -124 -105 -173t-105 -49q-42 0 -62 26t-20 52q0 44 28 64q166 0 220 172l24 72t22 68l-286 690q-20 50 -40 68q-18 18 -55 30t-59 12q-8 0 -8 26zM234 1186q0 38 22 66t56 28q38 0 54 -28t8 -60q-4 -10 -8 -38t22 -47t80 -19h2q56 0 82 21t20 47
q0 6 -6 36q-10 32 8 60t54 28q32 0 54 -27t22 -67q0 -74 -65 -121t-171 -47q-110 0 -172 46t-62 122z" />
    <glyph glyph-name="afii10193" unicode="&#x45f;" horiz-adv-x="1066" 
d="M66 20q0 28 10 28q18 0 59 11t45 25q10 26 10 100v496q0 68 -10 86q-6 12 -45 23t-59 11q-10 0 -10 28q0 20 10 30q10 -2 28 -4t68 -5t94 -1q44 0 93 2t77 6l26 2q4 -16 4 -30l-4 -28q-20 0 -61 -11t-47 -23q-10 -22 -10 -86v-584q0 -8 6 -8q12 -2 186 -2q70 0 186 4
q6 0 6 8v590q0 68 -8 84v-2q-8 12 -48 24t-58 12q-10 0 -10 28q0 16 4 24q-2 -2 29 -5t79 -4t90 -1q44 -2 91 1t73 7l26 2q8 -8 8 -30q0 -28 -8 -28q-22 0 -60 -11t-44 -23q-10 -22 -10 -86v-496q0 -74 10 -100q6 -14 46 -25t58 -11q8 0 8 -28q0 -6 -8 -30q-88 10 -184 10
q-12 0 -55 1t-69 1q-116 0 -116 -262q0 -22 -34 -22t-34 22q0 262 -118 262q-24 0 -63 -1t-51 -1l-196 -10q0 2 -3 9t-5 13t-2 8z" />
    <glyph glyph-name="afii10146" unicode="&#x462;" horiz-adv-x="1500" 
d="M48 838l38 284q80 -20 138 -20q78 -2 190 -5t160 -3q-4 90 -12 120q-6 14 -60 28t-78 14q-8 0 -8 26t8 34q106 -4 238 -4l236 4q8 -8 8 -34t-8 -26q-24 0 -78 -14t-60 -28q-12 -48 -12 -120q46 0 160 3t194 5q62 0 136 20l40 -284q-14 -14 -48 -14q-18 0 -20 10
q-30 112 -70 145t-156 33q-208 0 -236 -12v-282q152 12 244 8q186 -8 319 -110t133 -252q0 -170 -138 -267t-368 -97h-276l-240 -6q-6 6 -6 32t6 26q26 0 77 14t61 32q14 24 14 188v712q-26 14 -234 14q-114 0 -155 -33t-69 -145q-2 -10 -20 -10q-34 0 -48 14zM746 284
q0 -138 34 -166q30 -28 108 -28q368 0 368 252q0 128 -86 214t-270 86q-46 0 -150 -8q-4 -12 -4 -66v-284z" />
    <glyph glyph-name="afii10194" unicode="&#x463;" horiz-adv-x="1096" 
d="M40 678q0 6 14 79t18 135q118 -14 190 -14h130q0 6 -2 34t-4 53t-4 35q-4 14 -51 27t-73 13q-8 0 -8 25t8 33q122 -6 214 -6q88 0 212 6q8 -8 8 -33t-8 -25q-26 0 -73 -13t-51 -27q-2 -4 -12 -122h134l188 14q4 -62 19 -135t15 -79t-22 -6q-42 0 -48 12q-2 4 -10 33
t-17 45t-38 32t-73 16q-118 0 -150 -14v-280q0 -24 78 -24q198 0 301 -64t103 -168q0 -122 -98 -191t-266 -69h-190q-94 0 -216 -6q-8 8 -8 33t8 25q26 0 73 13t51 27q14 58 14 140v562q-36 16 -148 16q-44 0 -73 -16t-38 -32t-17 -45t-10 -33q-6 -12 -48 -12q-22 0 -22 6z
M546 188q0 -84 18 -94q18 -16 68 -16q234 0 234 174q0 74 -54 120t-172 46q-70 0 -84 -8q-10 -6 -10 -36v-186z" />
    <glyph glyph-name="afii10147" unicode="&#x472;" horiz-adv-x="1448" 
d="M86 654q0 282 187 480t451 198t451 -198t187 -480q0 -278 -187 -476t-451 -198t-451 198t-187 476zM284 740q114 -2 436 -2t436 2q-30 214 -151 361t-313 147q-180 0 -288 -150t-120 -358zM286 640q14 -236 139 -405t331 -169q128 0 224 83t141 206t45 263v22
q-224 4 -446 4q-372 0 -434 -4z" />
    <glyph glyph-name="afii10195" unicode="&#x473;" horiz-adv-x="1016" 
d="M72 432q0 186 124 314t310 128q180 0 308 -130t128 -312q0 -184 -126 -315t-306 -131q-182 0 -310 131t-128 315zM244 426q10 -152 93 -257t191 -105q106 0 174 100t68 240v22h-526zM246 500h514q-24 128 -103 212t-173 84q-98 0 -163 -85t-75 -211z" />
    <glyph glyph-name="afii10148" unicode="&#x474;" horiz-adv-x="1392" 
d="M22 1292q0 26 8 30q36 0 107 -4t123 -4q50 0 137 4t111 4q4 -8 3 -33t-7 -25q-110 0 -118 -36q-2 -10 -2 -28q0 -14 6 -38t21 -69t32 -88t50 -125t60 -149t78 -193t91 -224q4 -10 14 -6t18 12q38 102 140 396t144 388q102 236 250 230q44 -2 65 -22t19 -54q0 -54 -72 -62
l-18 -2q-38 -2 -74 -39t-90 -139q-34 -66 -90 -216t-136 -370t-144 -380q-30 -68 -70 -68q-14 0 -20 12l-410 1034q-48 126 -90 192q-14 20 -58 32t-70 12q-8 0 -8 28z" />
    <glyph glyph-name="afii10196" unicode="&#x475;" horiz-adv-x="936" 
d="M-10 836q0 24 8 32q206 -10 208 -10l200 10q4 -8 1 -33t-9 -25q-98 0 -98 -34q0 -4 2 -8l230 -528q114 380 124 410q88 252 210 252q36 0 57 -21t21 -49q0 -24 -16 -42t-42 -22l-18 -4q-36 -4 -63 -36t-63 -110q-28 -62 -87 -252t-115 -342q-4 -12 -23 -29t-33 -17t-18 8
q-34 76 -149 344t-201 440q-20 40 -118 40q-8 0 -8 26z" />
    <glyph glyph-name="afii10050" unicode="&#x490;" horiz-adv-x="1046" 
d="M88 1276q0 28 10 34q378 2 510 2h136q94 0 147 31t85 141q2 14 28 14q24 0 34 -10q-4 -18 -26 -115t-30 -155q-114 0 -199 4t-175 4q-172 0 -176 -26q-10 -50 -10 -168v-754q0 -116 18 -186q6 -14 58 -27t72 -13q8 0 8 -30q0 -16 -4 -28q-200 10 -234 10q-8 0 -238 -10
q-10 10 -10 30q0 28 10 28q26 0 77 12t57 28q12 46 12 180v764q0 124 -12 172q-6 14 -60 28t-78 14q-10 0 -10 26z" />
    <glyph glyph-name="afii10098" unicode="&#x491;" horiz-adv-x="774" 
d="M62 27q0 25 8 25q26 0 73 13t51 27q14 58 14 140v388q0 82 -14 140q-4 14 -51 27t-73 13q-8 0 -8 25t8 33q206 -10 220 -10l280 -2q40 0 66 19t35 39t18 51t11 37q6 12 48 12q22 0 22 -6q0 -8 -14 -94t-18 -148q-118 12 -190 12q-70 2 -84 2q-94 0 -96 -8q-6 -36 -6 -104
v-388q0 -116 16 -178q4 -14 51 -27t67 -13q6 0 8 -24t-2 -34q-200 10 -212 10q-14 0 -220 -10q-8 8 -8 33z" />
    <glyph glyph-name="afii10846" unicode="&#x4d9;" horiz-adv-x="820" 
d="M48 338q0 40 12 49t48 9h502q16 0 16 10q0 126 -76 232t-220 106q-42 0 -80 -8t-64 -19t-45 -22t-33 -21l-14 -10q-2 0 -5 3t-6 9t-3 14q0 18 14 36q38 56 115 101t171 45q166 0 285 -125t119 -305q0 -210 -113 -332t-283 -122q-92 0 -162 35t-107 90t-54 112t-17 113z
M210 294q0 -64 55 -148t143 -84q104 0 159 89t55 149q0 12 -12 12h-390q-10 0 -10 -18z" />
    <glyph glyph-name="uni2000" unicode="&#x2000;" horiz-adv-x="861" 
 />
    <glyph glyph-name="uni2001" unicode="&#x2001;" horiz-adv-x="1722" 
 />
    <glyph glyph-name="uni2002" unicode="&#x2002;" horiz-adv-x="861" 
 />
    <glyph glyph-name="uni2003" unicode="&#x2003;" horiz-adv-x="1722" 
 />
    <glyph glyph-name="uni2004" unicode="&#x2004;" horiz-adv-x="574" 
 />
    <glyph glyph-name="uni2005" unicode="&#x2005;" horiz-adv-x="430" 
 />
    <glyph glyph-name="uni2006" unicode="&#x2006;" horiz-adv-x="287" 
 />
    <glyph glyph-name="uni2007" unicode="&#x2007;" horiz-adv-x="287" 
 />
    <glyph glyph-name="uni2008" unicode="&#x2008;" horiz-adv-x="215" 
 />
    <glyph glyph-name="uni2009" unicode="&#x2009;" horiz-adv-x="344" 
 />
    <glyph glyph-name="uni200A" unicode="&#x200a;" horiz-adv-x="95" 
 />
    <glyph glyph-name="uni2010" unicode="&#x2010;" horiz-adv-x="750" 
d="M116 420q0 102 24 102h2l482 24h2q12 0 12 -18q0 -44 -7 -71t-13 -33l-6 -4l-482 -22h-4t-6 6t-4 16z" />
    <glyph glyph-name="uni2011" unicode="&#x2011;" horiz-adv-x="750" 
d="M116 420q0 102 24 102h2l482 24h2q12 0 12 -18q0 -44 -7 -71t-13 -33l-6 -4l-482 -22h-4t-6 6t-4 16z" />
    <glyph glyph-name="figuredash" unicode="&#x2012;" horiz-adv-x="750" 
d="M116 420q0 102 24 102h2l482 24h2q12 0 12 -18q0 -44 -7 -71t-13 -33l-6 -4l-482 -22h-4t-6 6t-4 16z" />
    <glyph glyph-name="endash" unicode="&#x2013;" horiz-adv-x="998" 
d="M56 418q0 20 7 63t21 43h850q12 0 12 -18q0 -20 -18 -92q-2 -6 -5 -9t-7 -5h-2h-846l-8 4q-4 6 -4 14z" />
    <glyph glyph-name="emdash" unicode="&#x2014;" horiz-adv-x="1556" 
d="M44 438q0 20 7 63t21 43h1432q12 0 12 -18q0 -28 -16 -92q-2 -6 -6 -9t-6 -5h-4h-1428l-8 4q-4 6 -4 14z" />
    <glyph glyph-name="quoteleft" unicode="&#x2018;" horiz-adv-x="320" 
d="M32 1110q0 52 21 103t51 85t63 61t56 40t29 13q24 0 38 -36q-54 -32 -88 -75t-43 -68t-9 -39q0 -26 41 -71t41 -73q0 -36 -40 -61t-90 -25q-18 0 -40 6q-30 44 -30 140z" />
    <glyph glyph-name="quoteright" unicode="&#x2019;" horiz-adv-x="320" 
d="M36 1004q54 32 89 75t44 68t9 39q0 26 -41 71t-41 73q0 36 40 61t90 25q18 0 40 -6q28 -40 28 -140q0 -52 -21 -103t-51 -85t-62 -61t-55 -40t-29 -13q-26 0 -40 36z" />
    <glyph glyph-name="quotesinglbase" unicode="&#x201a;" horiz-adv-x="320" 
d="M36 -160q54 32 89 75t44 68t9 39q0 26 -41 71t-41 73q0 36 40 61t90 25q18 0 40 -6q28 -40 28 -140q0 -52 -21 -103t-51 -85t-62 -60t-55 -39t-29 -13q-28 0 -40 34z" />
    <glyph glyph-name="quotedblleft" unicode="&#x201c;" horiz-adv-x="618" 
d="M32 1110q0 52 21 103t51 85t63 61t56 40t29 13q24 0 38 -36q-54 -32 -88 -75t-43 -68t-9 -39q0 -26 41 -71t41 -73q0 -36 -40 -61t-90 -25q-18 0 -40 6q-30 44 -30 140zM320 1110q0 52 21 103t51 85t62 61t55 40t29 13q26 0 40 -36q-54 -32 -89 -75t-44 -68t-9 -39
q0 -26 41 -71t41 -73q0 -36 -39 -61t-89 -25q-22 0 -42 6q-28 40 -28 140z" />
    <glyph glyph-name="quotedblright" unicode="&#x201d;" horiz-adv-x="620" 
d="M36 1004q54 32 89 75t44 68t9 39q0 26 -41 71t-41 73q0 36 40 61t90 25q18 0 40 -6q28 -40 28 -140q0 -52 -21 -103t-51 -85t-62 -61t-55 -40t-29 -13q-26 0 -40 36zM324 1004q54 32 88 75t43 68t9 39q0 26 -41 71t-41 73q0 36 40 61t90 25q20 0 40 -6q30 -44 30 -140
q0 -52 -21 -103t-51 -85t-63 -61t-56 -40t-29 -13q-24 0 -38 36z" />
    <glyph glyph-name="quotedblbase" unicode="&#x201e;" horiz-adv-x="618" 
d="M36 -160q54 32 89 75t44 68t9 39q0 26 -41 71t-41 73q0 36 40 61t90 25q18 0 40 -6q28 -40 28 -140q0 -52 -21 -103t-51 -85t-62 -60t-55 -39t-29 -13q-28 0 -40 34zM324 -164q54 32 88 75t43 68t9 39q0 26 -41 71t-41 73q0 36 40 61t90 25q20 0 40 -6q30 -44 30 -140
q0 -52 -21 -103t-51 -85t-63 -60t-56 -39t-29 -13q-26 0 -38 34z" />
    <glyph glyph-name="bullet" unicode="&#x2022;" horiz-adv-x="818" 
d="M190 526q0 88 64 152t152 64t151 -64t63 -152t-63 -152t-151 -64t-152 64t-64 152z" />
    <glyph glyph-name="ellipsis" unicode="&#x2026;" horiz-adv-x="1608" 
d="M46 90q0 48 35 81t83 33t81 -33t33 -81t-33 -83t-81 -35t-83 35t-35 83zM672 90q0 48 35 81t83 33t81 -33t33 -81t-33 -83t-81 -35t-83 35t-35 83zM1298 90q0 48 35 81t83 33t81 -33t33 -81t-33 -83t-81 -35t-83 35t-35 83z" />
    <glyph glyph-name="uni202F" unicode="&#x202f;" horiz-adv-x="344" 
 />
    <glyph glyph-name="guilsinglleft" unicode="&#x2039;" horiz-adv-x="580" 
d="M54 482q0 36 16 54q256 154 412 310q46 -12 46 -38q0 -12 -18 -31t-104 -101q-26 -26 -94 -97t-82 -85l174 -180q20 -20 40 -39t31 -30l21 -21l15 -15t9 -10t5 -9t1 -8q0 -8 -6 -15t-12 -10t-16 -6t-12 -5q-2 4 -39 37t-139 110t-234 161q-14 6 -14 28z" />
    <glyph glyph-name="guilsinglright" unicode="&#x203a;" horiz-adv-x="584" 
d="M54 808q0 8 6 15t12 10l16 8t12 5q156 -156 410 -310q18 -20 18 -54q0 -22 -16 -28q-116 -74 -212 -146t-139 -108t-59 -54q-46 12 -46 36q0 4 1 8t5 10t9 11l16 16t22 21t30 29l37 37l174 180q-14 14 -82 85t-94 97q-88 86 -104 103t-16 29z" />
    <glyph glyph-name="uni205F" unicode="&#x205f;" horiz-adv-x="430" 
 />
    <glyph glyph-name="Euro" unicode="&#x20ac;" horiz-adv-x="1310" 
d="M36 478q-10 0 0 30q12 44 32 66h784q10 0 0 -32q-12 -42 -32 -64h-784zM36 700q-10 0 0 30q12 44 32 66h784q10 0 0 -32q-12 -42 -32 -64h-784zM124 618q0 274 177 470t441 196q196 0 452 -50q-4 -256 -4 -276q0 -30 -40 -30q-18 0 -24 10q-54 266 -378 266
q-188 0 -314 -166t-126 -378q0 -156 50 -286t163 -217t273 -87q174 0 280 112q26 28 47 75t31 79t16 32l64 -16q0 -22 -27 -148t-39 -132q-138 -84 -446 -84q-252 0 -424 186t-172 444z" />
    <glyph glyph-name="uniE000" unicode="&#xe000;" horiz-adv-x="870" 
d="M0 0v870h870v-870h-870z" />
    </font>
</defs>
</svg>
